<?xml version="1.0" encoding="UTF-8"?>
<svg version="1.1" xmlns="http://www.w3.org/2000/svg" width="200" height="249">
<path d="M0 0 C9.77509087 0.52967471 19.35666925 1.46863226 29.04296875 2.92578125 C30.97575432 3.20907539 30.97575432 3.20907539 32.94758606 3.49809265 C36.34540794 3.99612291 39.74217725 4.50098396 43.13873291 5.00756836 C46.50272749 5.50825406 49.86758426 6.00306384 53.23242188 6.49804688 C57.22637064 7.0858201 61.2202551 7.67400142 65.2137146 8.26509094 C74.16600679 9.58933732 83.12244466 10.88232014 92.08203125 12.15625 C101.22831034 13.45713191 110.37015999 14.77511613 119.5 16.1875 C120.58023438 16.35185547 121.66046875 16.51621094 122.7734375 16.68554688 C123.80726563 16.84474609 124.84109375 17.00394531 125.90625 17.16796875 C127.24139648 17.37329224 127.24139648 17.37329224 128.60351562 17.58276367 C130.77149092 17.96021577 132.8745043 18.43375659 135 19 C134.60007952 30.04607952 133.59999782 40.89197105 132.09106445 51.84277344 C131.2598178 57.89174664 130.58471546 63.89214066 130.2109375 69.98828125 C130 72 130 72 129 74 C130.27270752 73.98267822 131.54541504 73.96535645 132.85668945 73.94750977 C138.03718816 73.94959468 143.13819026 74.3551575 148.29296875 74.83984375 C149.24263016 74.92625626 150.19229156 75.01266876 151.17073059 75.10169983 C153.16339614 75.2838813 155.15588309 75.4680262 157.14819336 75.65405273 C160.18886559 75.93762736 163.23009999 76.21441354 166.27148438 76.49023438 C168.2161825 76.6688721 170.16084527 76.84789526 172.10546875 77.02734375 C173.46033638 77.1508445 173.46033638 77.1508445 174.84257507 77.27684021 C179.2664312 77.69255213 183.62592994 78.19334167 188 79 C187.55368972 90.92375595 185.46447465 102.36643847 183.25 114.0625 C182.70267568 117.00069143 182.15818592 119.93939885 181.61392212 122.87815857 C181.25276085 124.82766504 180.89076707 126.77701747 180.52792358 128.72621155 C178.7814578 138.12163521 177.15042548 147.53443829 175.54785156 156.95532227 C173.98802505 166.12177113 172.39449925 175.25897767 170.43408203 184.34985352 C170.16516144 185.59871841 169.89624084 186.84758331 169.61917114 188.1342926 C169.31268143 189.55281776 169.31268143 189.55281776 169 191 C167.74212173 191.03092239 167.74212173 191.03092239 166.45883179 191.06246948 C158.54315546 191.25869491 150.62776767 191.46376133 142.71257591 191.67867851 C138.64361368 191.78885112 134.57462206 191.89564326 130.50537109 191.99462891 C126.57588395 192.09034058 122.64672831 192.19503776 118.71763992 192.3058815 C117.22107866 192.34653736 115.72442685 192.38399406 114.22770309 192.41814804 C112.12591721 192.46666417 110.02474559 192.52670684 107.92333984 192.58935547 C106.72865082 192.62044403 105.53396179 192.65153259 104.30307007 192.68356323 C100.8992149 193.00965529 98.15223825 193.68438731 95 195 C93.44577234 197.11875579 93.44577234 197.11875579 92.625 199.625 C92.30789062 200.44226563 91.99078125 201.25953125 91.6640625 202.1015625 C91.44492188 202.72804687 91.22578125 203.35453125 91 204 C90.34 204 89.68 204 89 204 C89.1431186 205.95077965 89.1431186 205.95077965 90 208 C92.03980755 209.27575377 92.03980755 209.27575377 94.64453125 210.11328125 C95.62035156 210.47010986 96.59617187 210.82693848 97.6015625 211.19458008 C98.66117187 211.56349365 99.72078125 211.93240723 100.8125 212.3125 C101.90691406 212.70783936 103.00132813 213.10317871 104.12890625 213.51049805 C107.41319468 214.69174394 110.70458277 215.85020985 114 217 C114.85126465 217.29777344 115.7025293 217.59554687 116.57958984 217.90234375 C119.6578307 218.97706054 122.73670862 220.04971439 125.81958008 221.11108398 C135.71437734 224.54281125 145.49602542 228.28616103 155.28710938 232.0012207 C156.30424011 232.38581703 156.30424011 232.38581703 157.34191895 232.77818298 C159.20387456 233.48235642 161.06485873 234.18909701 162.92578125 234.89599609 C165.28795686 235.74429328 167.55325032 236.46609505 170 237 C170 237.66 170 238.32 170 239 C166.87842248 239.68338466 163.75232892 240.34348272 160.625 241 C159.75488281 241.19078125 158.88476562 241.3815625 157.98828125 241.578125 C157.11816406 241.75859375 156.24804688 241.9390625 155.3515625 242.125 C154.56604004 242.29257813 153.78051758 242.46015625 152.97119141 242.6328125 C145.13559366 243.60115589 137.58785434 242.84972145 129.83203125 241.609375 C128.88573349 241.46462234 127.93943573 241.31986969 126.96446228 241.17073059 C124.95048411 240.86218968 122.9369861 240.55050027 120.9239502 240.23587036 C115.67182962 239.41572234 110.41594508 238.62046358 105.16015625 237.82421875 C104.11951019 237.66610214 103.07886414 237.50798553 102.00668335 237.34507751 C92.93485201 235.9737064 83.85098297 234.7233318 74.75 233.5625 C72.84504761 233.31741699 72.84504761 233.31741699 70.90161133 233.06738281 C64.9678252 232.28245565 64.9678252 232.28245565 59 232 C59.86625 232.98742187 60.7325 233.97484375 61.625 234.9921875 C62.75025792 236.2862341 63.87524391 237.5805172 65 238.875 C65.85851562 239.85146484 65.85851562 239.85146484 66.734375 240.84765625 C67.27578125 241.47285156 67.8171875 242.09804687 68.375 242.7421875 C68.87773438 243.3182373 69.38046875 243.89428711 69.8984375 244.48779297 C71 246 71 246 71 248 C60.47070439 249.3580755 49.90478013 249.11201847 39.3125 249.0625 C37.43554807 249.05747491 35.55859484 249.05291379 33.68164062 249.04882812 C29.12106113 249.03790258 24.56054521 249.02069357 20 249 C18.00041543 229.05309345 18.00041543 229.05309345 17.78515625 222.94921875 C17.75607178 222.16530762 17.7269873 221.38139648 17.69702148 220.57373047 C17.65076229 219.12134871 17.61907628 217.66838885 17.60571289 216.21533203 C17.29655956 206.75501354 12.31032853 198.34997794 8.25 190 C4.31453723 181.82008284 0.51086024 173.59933955 -3.10546875 165.2734375 C-4.34760058 162.42486685 -5.66212861 159.63150404 -7.05078125 156.8515625 C-7.37860596 156.17134033 -7.70643066 155.49111816 -8.04418945 154.7902832 C-8.92780091 152.96189587 -9.83777021 151.14630969 -10.75 149.33203125 C-15.28812448 136.7968365 -11.30053328 119.38268923 -10.1875 106.375 C-10.00171109 104.15601931 -9.81608433 101.93702503 -9.63061523 99.71801758 C-8.61301599 87.64668623 -7.52600294 75.58780652 -6.22216797 63.54370117 C-4.80528876 50.43613822 -3.5680961 37.31132461 -2.3125 24.1875 C-2.14054611 22.39232437 -2.14054611 22.39232437 -1.96511841 20.56088257 C-1.30868009 13.70738833 -0.65353241 6.85377194 0 0 Z M54 154 C53.68977905 155.02154175 53.68977905 155.02154175 53.37329102 156.0637207 C52.43677714 159.14677382 51.49964576 162.2296389 50.5625 165.3125 C50.07426758 166.9202832 50.07426758 166.9202832 49.57617188 168.56054688 C49.26357422 169.58857422 48.95097656 170.61660156 48.62890625 171.67578125 C48.34088135 172.62364502 48.05285645 173.57150879 47.75610352 174.5480957 C47.19348373 176.37256795 46.60375823 178.18872531 46 180 C55.13338455 180.28994872 63.96301675 179.1741788 73 178 C72.67 177.34 72.34 176.68 72 176 C71.34 176 70.68 176 70 176 C69.7628125 175.30519531 69.525625 174.61039063 69.28125 173.89453125 C67.7689473 170.47801815 65.74761633 167.64243329 63.5 164.6875 C63.09652344 164.13771484 62.69304687 163.58792969 62.27734375 163.02148438 C61.23731309 161.63992549 60.12366546 160.31443702 59 159 C58.34 159 57.68 159 57 159 C56.34 157.35 55.68 155.7 55 154 C54.67 154 54.34 154 54 154 Z M45 184 C38.45278566 194.42144978 38.45278566 194.42144978 36.1015625 206.09375 C37.37185463 208.78897852 39.14950592 210.64478435 41.1875 212.8125 C41.99445312 213.68261719 42.80140625 214.55273438 43.6328125 215.44921875 C44.41398437 216.29097656 45.19515625 217.13273437 46 218 C48.02358386 220.31442284 50.01182258 222.65497022 52 225 C52.99 224.505 52.99 224.505 54 224 C54 223.34 54 222.68 54 222 C54.84691406 221.65582031 54.84691406 221.65582031 55.7109375 221.3046875 C58.60844637 219.65320633 60.41421533 217.61675396 62.625 215.125 C63.40101562 214.26132813 64.17703125 213.39765625 64.9765625 212.5078125 C66.71897809 210.34829356 67.82503192 208.47932056 69 206 C65.94579982 202.88757339 62.88024557 199.78657193 59.8125 196.6875 C58.94818359 195.80642578 58.08386719 194.92535156 57.19335938 194.01757812 C56.35224609 193.17001953 55.51113281 192.32246094 54.64453125 191.44921875 C53.87471924 190.66893311 53.10490723 189.88864746 52.31176758 189.0847168 C50.007534 187.00679405 47.70914587 185.49809691 45 184 Z " fill="#A84904" transform="translate(12,0)"/>
<path d="M0 0 C3.09690324 2.23665234 4.85829912 3.7109302 6.5625 7.1875 C9.57622445 10.66487436 10.78251883 10.5136211 15.25 10.875 C17.16588632 10.9437519 19.08288997 10.99397135 21 11 C19.39875626 15.03095707 17.71786123 19.01768534 16 23 C15.34 23 14.68 23 14 23 C14.1431186 24.95077965 14.1431186 24.95077965 15 27 C17.03980755 28.27575377 17.03980755 28.27575377 19.64453125 29.11328125 C20.62035156 29.47010986 21.59617187 29.82693848 22.6015625 30.19458008 C23.66117187 30.56349365 24.72078125 30.93240723 25.8125 31.3125 C26.90691406 31.70783936 28.00132813 32.10317871 29.12890625 32.51049805 C32.41319468 33.69174394 35.70458277 34.85020985 39 36 C39.85126465 36.29777344 40.7025293 36.59554687 41.57958984 36.90234375 C44.6578307 37.97706054 47.73670862 39.04971439 50.81958008 40.11108398 C60.71437734 43.54281125 70.49602542 47.28616103 80.28710938 51.0012207 C80.96519653 51.25761826 81.64328369 51.51401581 82.34191895 51.77818298 C84.20387456 52.48235642 86.06485873 53.18909701 87.92578125 53.89599609 C90.28795686 54.74429328 92.55325032 55.46609505 95 56 C95 56.66 95 57.32 95 58 C91.87842248 58.68338466 88.75232892 59.34348272 85.625 60 C84.75488281 60.19078125 83.88476562 60.3815625 82.98828125 60.578125 C82.11816406 60.75859375 81.24804688 60.9390625 80.3515625 61.125 C79.17327881 61.37636719 79.17327881 61.37636719 77.97119141 61.6328125 C70.13559366 62.60115589 62.58785434 61.84972145 54.83203125 60.609375 C53.88573349 60.46462234 52.93943573 60.31986969 51.96446228 60.17073059 C49.95048411 59.86218968 47.9369861 59.55050027 45.9239502 59.23587036 C40.67182962 58.41572234 35.41594508 57.62046358 30.16015625 56.82421875 C29.11951019 56.66610214 28.07886414 56.50798553 27.00668335 56.34507751 C17.93485201 54.9737064 8.85098297 53.7233318 -0.25 52.5625 C-1.51996826 52.39911133 -2.78993652 52.23572266 -4.09838867 52.06738281 C-10.0321748 51.28245565 -10.0321748 51.28245565 -16 51 C-15.13375 51.98742187 -14.2675 52.97484375 -13.375 53.9921875 C-12.24974208 55.2862341 -11.12475609 56.5805172 -10 57.875 C-9.42765625 58.52597656 -8.8553125 59.17695313 -8.265625 59.84765625 C-7.72421875 60.47285156 -7.1828125 61.09804687 -6.625 61.7421875 C-6.12226562 62.3182373 -5.61953125 62.89428711 -5.1015625 63.48779297 C-4 65 -4 65 -4 67 C-14.52929561 68.3580755 -25.09521987 68.11201847 -35.6875 68.0625 C-37.56445193 68.05747491 -39.44140516 68.05291379 -41.31835938 68.04882812 C-45.87893887 68.03790258 -50.43945479 68.02069357 -55 68 C-56.39300508 54.33788319 -57.43988414 40.7228386 -58 27 C-57.34 27 -56.68 27 -56 27 C-54.414131 30.171738 -54.62133555 33.63513822 -54.4375 37.125 C-54.39431641 37.87910156 -54.35113281 38.63320312 -54.30664062 39.41015625 C-54.2005168 41.27321888 -54.09974999 43.13658524 -54 45 C-54.02320313 44.01257813 -54.04640625 43.02515625 -54.0703125 42.0078125 C-54.08835938 40.72648437 -54.10640625 39.44515625 -54.125 38.125 C-54.14820313 36.84882813 -54.17140625 35.57265625 -54.1953125 34.2578125 C-54 31 -54 31 -52 29 C-45.57142857 33.14285714 -45.57142857 33.14285714 -43 36 C-42.67 35.34 -42.34 34.68 -42 34 C-42.99 33.67 -43.98 33.34 -45 33 C-45 32.01 -45 31.02 -45 30 C-45.99 29.67 -46.98 29.34 -48 29 C-47.69917701 24.71905751 -46.18283484 22.81251971 -43.00195312 20.00585938 C-42.48568359 19.57080078 -41.96941406 19.13574219 -41.4375 18.6875 C-40.91736328 18.23310547 -40.39722656 17.77871094 -39.86132812 17.31054688 C-38.58322934 16.19660757 -37.29279345 15.09685112 -36 14 C-35.67 14.66 -35.34 15.32 -35 16 C-35.495 17.11375 -35.99 18.2275 -36.5 19.375 C-38.22377613 23.30803664 -38.22377613 23.30803664 -37 27 C-35.09722594 29.44784252 -35.09722594 29.44784252 -32.75 31.875 C-29.38282996 35.50531411 -26.12927155 39.16411875 -23 43 C-16.7120241 38.04989131 -11.92962331 32.2821957 -7 26 C-12.55035203 19.21623641 -18.76442027 13.14477032 -25 7 C-17.4551418 7 -9.5821144 17.19056593 -4.36328125 22.2734375 C-3 24 -3 24 -3 27 C-1.68 25.68 -0.36 24.36 1 23 C1 23.66 1 24.32 1 25 C1.99 25 2.98 25 4 25 C3.505 23.515 3.505 23.515 3 22 C2.84842371 19.89758068 2.72699205 17.79290732 2.625 15.6875 C2.29286504 10.71101112 1.52473865 7.36091221 -1 3 C-0.67 2.01 -0.34 1.02 0 0 Z " fill="#924100" transform="translate(87,181)"/>
<path d="M0 0 C5.58996969 -0.34937311 9.96212855 0.47527362 15 3 C15.66 3.66 16.32 4.32 17 5 C17.680625 5.165 18.36125 5.33 19.0625 5.5 C19.701875 5.665 20.34125 5.83 21 6 C21.33 6.66 21.66 7.32 22 8 C23.2375 8.495 23.2375 8.495 24.5 9 C27 10 27 10 28 12 C30.30965848 13.05352843 32.6429774 14.05719096 35 15 C35 15.66 35 16.32 35 17 C35.763125 17.268125 36.52625 17.53625 37.3125 17.8125 C39.93603434 18.9717361 41.27119728 19.75255646 43 22 C43.12375 22.61875 43.2475 23.2375 43.375 23.875 C44.3259601 27.10826433 46.57052741 28.7482937 49 31 C52.44621549 34.44621549 54.05150753 39.25753764 55 44 C54.34 44 53.68 44 53 44 C52.814375 45.1446875 52.814375 45.1446875 52.625 46.3125 C52 49 52 49 50 52 C49.34 52 48.68 52 48 52 C48 52.66 48 53.32 48 54 C47.34 54 46.68 54 46 54 C45.67 54.99 45.34 55.98 45 57 C41.7 57 38.4 57 35 57 C35 56.34 35 55.68 35 55 C34.113125 54.773125 33.22625 54.54625 32.3125 54.3125 C28.52100197 52.81020833 26.85909064 50.85909064 24 48 C22.17623689 47.08591648 22.17623689 47.08591648 20.25 46.375 C19.1775 45.92125 18.105 45.4675 17 45 C16.67 44.01 16.34 43.02 16 42 C14.28927087 40.81564907 12.57736811 39.63289507 10.85546875 38.46484375 C7.81513974 36.064584 6.04179102 33.27924013 4 30 C4 29.34 4 28.68 4 28 C3.01 27.67 2.02 27.34 1 27 C-0.37535339 25.02866014 -1.70211044 23.02318078 -3 21 C-3.9075 20.05125 -4.815 19.1025 -5.75 18.125 C-8.75123872 13.95661289 -8.49541379 12.03670688 -8 7 C-7.67 6.01 -7.34 5.02 -7 4 C-6.34 4 -5.68 4 -5 4 C-5 3.34 -5 2.68 -5 2 C-3.35 2 -1.7 2 0 2 C0 1.34 0 0.68 0 0 Z " fill="#DCD7D4" transform="translate(42,12)"/>
<path d="M0 0 C5.19941727 -0.67089255 9.52355011 1.59028041 14 4 C14.66 4.66 15.32 5.32 16 6 C17.010625 6.2475 18.02125 6.495 19.0625 6.75 C23.91520507 8.03724387 28.27224543 10.65622015 32 14 C33.31445445 18.02099484 33.11054447 22.06643546 33.0625 26.25 C33.05798828 26.99507812 33.05347656 27.74015625 33.04882812 28.5078125 C33.03709246 30.3385764 33.0191585 32.16929873 33 34 C32.34 34 31.68 34 31 34 C31.1546875 35.0828125 31.1546875 35.0828125 31.3125 36.1875 C30.87533463 40.12198832 28.83620357 41.37132352 26 44 C25.67 44.99 25.34 45.98 25 47 C21.7 47 18.4 47 15 47 C15 46.01 15 45.02 15 44 C14.34 44 13.68 44 13 44 C13 43.34 13 42.68 13 42 C12.34 42 11.68 42 11 42 C11 41.34 11 40.68 11 40 C10.34 40 9.68 40 9 40 C8.01751476 35.9472484 7.91840426 32.16138263 8 28 C7.01 27.67 6.02 27.34 5 27 C3.02734375 24.6015625 3.02734375 24.6015625 0.9375 21.625 C0.24527344 20.64789063 -0.44695312 19.67078125 -1.16015625 18.6640625 C-5.00924912 13.0906414 -5.00924912 13.0906414 -4.6875 9.9375 C-4 7 -4 7 -3 5 C-2.34 5 -1.68 5 -1 5 C-0.67 3.35 -0.34 1.7 0 0 Z " fill="#B6B3B1" transform="translate(93,21)"/>
<path d="M0 0 C1.79301169 0.57918591 3.58432403 1.16363255 5.375 1.75 C6.87160156 2.23726562 6.87160156 2.23726562 8.3984375 2.734375 C11.21161955 3.72295524 13.95711413 4.77218162 16.71875 5.890625 C22.13580077 8.07939396 27.61926972 10.04729979 33.125 12 C44.98160115 16.23040471 56.7667473 20.63904594 68.53759766 25.1015625 C69.85449126 25.59896079 71.17138575 26.09635673 72.48828125 26.59375 C73.64884033 27.03396484 74.80939941 27.47417969 76.00512695 27.92773438 C78.33872619 28.76324166 80.58376476 29.46972431 83 30 C83 30.66 83 31.32 83 32 C79.73011701 32.67138621 76.45894951 33.33629263 73.1875 34 C72.25873047 34.19078125 71.32996094 34.3815625 70.37304688 34.578125 C69.48037109 34.75859375 68.58769531 34.9390625 67.66796875 35.125 C66.84578857 35.29257813 66.0236084 35.46015625 65.17651367 35.6328125 C63 36 63 36 60 36 C60 35.34 60 34.68 60 34 C59.26177002 33.88100342 58.52354004 33.76200684 57.76293945 33.6394043 C55.03858991 33.00893055 53.19066413 32.17544372 50.79296875 30.76953125 C50.01356934 30.3204541 49.23416992 29.87137695 48.43115234 29.40869141 C47.62887207 28.94382324 46.8265918 28.47895508 46 28 C44.41528846 27.1243156 42.82802606 26.25323202 41.23828125 25.38671875 C33.64835765 21.22831623 26.06155616 17.0707053 18.5625 12.75 C12.10871019 9.03580943 5.57456827 5.49478712 -1 2 C-0.67 1.34 -0.34 0.68 0 0 Z " fill="#743400" transform="translate(99,207)"/>
<path d="M0 0 C0.66 0.33 1.32 0.66 2 1 C1.01 3.97 0.02 6.94 -1 10 C-0.34 10.33 0.32 10.66 1 11 C-0.32 11.99 -1.64 12.98 -3 14 C-3 13.34 -3 12.68 -3 12 C-5.3852733 11.87184635 -5.3852733 11.87184635 -8 13 C-9.23877246 14.93179202 -10.12521465 16.87551479 -11.0078125 18.9921875 C-12 21 -12 21 -13.55859375 22.44921875 C-15.94997714 25.02206213 -15.83382847 28.14745143 -16.27734375 31.52734375 C-17 34 -17 34 -18.9609375 35.7421875 C-22.04094581 39.15261816 -22.13583407 42.72872638 -22.6875 47.1875 C-22.80923584 48.07083008 -22.93097168 48.95416016 -23.05639648 49.86425781 C-23.98834793 56.96617314 -24.45805677 64.04707434 -24.69140625 71.203125 C-25.02968459 75.36523317 -25.88860103 78.98289529 -27 83 C-27.33 83 -27.66 83 -28 83 C-28.33 78.38 -28.66 73.76 -29 69 C-29.66 69 -30.32 69 -31 69 C-31.1802535 61.93959424 -30.69838034 55.17313576 -29.6875 48.1875 C-29.56955078 47.27291016 -29.45160156 46.35832031 -29.33007812 45.41601562 C-28.63809339 40.5366361 -27.79031452 37.14519165 -25 33 C-24.15023423 30.22645895 -23.5018393 27.44539367 -22.84375 24.62109375 C-21.95598059 21.86325451 -20.95887369 20.12377887 -19 18 C-18.34 18 -17.68 18 -17 18 C-16.89171875 17.41347656 -16.7834375 16.82695313 -16.671875 16.22265625 C-14.96445856 10.57428443 -10.01349356 6.69957346 -5 4 C-3.31522656 2.68962066 -1.64351457 1.36176922 0 0 Z " fill="#732B14" transform="translate(151,87)"/>
<path d="M0 0 C0 0.99 0 1.98 0 3 C-0.99 3 -1.98 3 -3 3 C-2.01 2.01 -1.02 1.02 0 0 Z M-9 3 C-8.01 3.66 -7.02 4.32 -6 5 C-5.01 5 -4.02 5 -3 5 C-3.42152344 5.47050781 -3.84304687 5.94101563 -4.27734375 6.42578125 C-4.82519531 7.04839844 -5.37304688 7.67101562 -5.9375 8.3125 C-6.48277344 8.92738281 -7.02804688 9.54226562 -7.58984375 10.17578125 C-9.20081559 12.05241958 -9.20081559 12.05241958 -10 15 C-10.64839844 15.60972656 -11.29679688 16.21945313 -11.96484375 16.84765625 C-14.35043642 19.3706151 -14.8216207 21.07791524 -15.5625 24.4375 C-16.23406797 27.43661411 -16.7663627 29.64931242 -18.47753906 32.21777344 C-20.33942536 35.62028406 -20.70892454 38.42305732 -21.16796875 42.26953125 C-21.25250809 42.95053391 -21.33704742 43.63153656 -21.42414856 44.33317566 C-21.68958025 46.49178556 -21.93876596 48.65190899 -22.1875 50.8125 C-22.36546387 52.2833333 -22.5444894 53.75403856 -22.72460938 55.22460938 C-23.16203302 58.81500683 -23.58491649 62.40694324 -24 66 C-23.34 66 -22.68 66 -22 66 C-21.46915208 68.91516484 -20.95000945 71.83160557 -20.4375 74.75 C-20.28603516 75.575 -20.13457031 76.4 -19.97851562 77.25 C-19.83994141 78.04921875 -19.70136719 78.8484375 -19.55859375 79.671875 C-19.42767334 80.4050293 -19.29675293 81.13818359 -19.16186523 81.89355469 C-18.98752588 84.16233287 -19.33125193 85.83778579 -20 88 C-20.495 85.525 -20.495 85.525 -21 83 C-21.66 83 -22.32 83 -23 83 C-23.66 78.38 -24.32 73.76 -25 69 C-25.33 69 -25.66 69 -26 69 C-26.24764221 60.16742768 -25.95059526 51.43227072 -25.25 42.625 C-25.18828613 41.71089355 -25.12657227 40.79678711 -25.06298828 39.85498047 C-24.51225855 33.54506042 -22.85139189 28.62953838 -20 23 C-18.90599171 20.38653576 -17.98036168 17.92635631 -17.25 15.1875 C-15.45044235 10.59862798 -12.49758928 6.49758928 -9 3 Z " fill="#974401" transform="translate(144,90)"/>
<path d="M0 0 C3.09690324 2.23665234 4.85829912 3.7109302 6.5625 7.1875 C9.57622445 10.66487436 10.78251883 10.5136211 15.25 10.875 C17.16588632 10.9437519 19.08288997 10.99397135 21 11 C19.39875626 15.03095707 17.71786123 19.01768534 16 23 C15.34 23 14.68 23 14 23 C14 23.99 14 24.98 14 26 C11.69 26.33 9.38 26.66 7 27 C5.8673569 23.19755532 4.88232488 19.45731367 4.125 15.5625 C3.27654379 11.52715947 1.77568398 8.27908981 -0.29296875 4.7265625 C-1 3 -1 3 0 0 Z " fill="#883C00" transform="translate(87,181)"/>
<path d="M0 0 C0.66 0.33 1.32 0.66 2 1 C1.40361667 2.27450447 0.79752584 3.54446877 0.1875 4.8125 C-0.31716797 5.87404297 -0.31716797 5.87404297 -0.83203125 6.95703125 C-2 9 -2 9 -3.578125 10.453125 C-5.94622948 13.02941449 -5.83536181 16.15913658 -6.27734375 19.52734375 C-7 22 -7 22 -8.9609375 23.7421875 C-12.04104375 27.15272661 -12.13556359 30.72864526 -12.6875 35.1875 C-12.80923584 36.06720459 -12.93097168 36.94690918 -13.05639648 37.85327148 C-13.92513486 44.45271813 -14.4376556 51.05217487 -14.62182617 57.70581055 C-14.74895576 61.33368757 -14.92843755 62.89265633 -17 66 C-17.80921443 59.30953068 -18.10789535 52.67031608 -18.125 45.9375 C-18.12951172 45.18734619 -18.13402344 44.43719238 -18.13867188 43.66430664 C-18.12381982 38.24763965 -18.12381982 38.24763965 -17 36 C-16.89755464 34.41778831 -16.81720424 32.8340999 -16.75 31.25 C-16.43533626 27.58941187 -16.0618808 25.53994497 -13.5 22.875 C-10.97185738 19.96763599 -10.67923104 19.48906675 -10.375 15.9375 C-10.00073517 12.00771934 -9.40347093 10.07644279 -7 7 C-6.34 7 -5.68 7 -5 7 C-4.731875 6.401875 -4.46375 5.80375 -4.1875 5.1875 C-3.01506533 3.02775192 -1.80630718 1.64209744 0 0 Z " fill="#5A1B1A" transform="translate(141,99)"/>
<path d="M0 0 C6.80628699 -0.35822563 11.03317349 0.48767654 16.875 4.1875 C18.76377772 7.23053077 18.71026907 10.46528261 19 14 C13.9532923 14.29686516 11.05243256 14.0926459 7 11 C5.29413425 9.37347684 3.6222454 7.70993434 2 6 C1.34 5.34 0.68 4.68 0 4 C0 2.68 0 1.36 0 0 Z " fill="#270D13" transform="translate(67,46)"/>
<path d="M0 0 C1 2 1 2 1.28125 3.82421875 C2.2993888 6.90630198 4.22312552 8.52481757 6.5 10.8125 C10.53689556 15.12276014 11.64827207 17.25511046 12 23 C13.9568288 24.82337753 13.9568288 24.82337753 16 26 C16 26.66 16 27.32 16 28 C16.928125 28.28875 17.85625 28.5775 18.8125 28.875 C22 30 22 30 25 32 C25 32.66 25 33.32 25 34 C23.515 34.495 23.515 34.495 22 35 C16.70655914 32.15394498 12.50101079 27.81388984 9 23 C9 22.34 9 21.68 9 21 C8.01 20.67 7.02 20.34 6 20 C6 19.34 6 18.68 6 18 C5.01 17.67 4.02 17.34 3 17 C3 16.01 3 15.02 3 14 C2.01 13.67 1.02 13.34 0 13 C-2.86935543 9.31082874 -4 7.75567676 -4 3 C-2 1.25 -2 1.25 0 0 Z " fill="#713300" transform="translate(48,202)"/>
<path d="M0 0 C0.66 0 1.32 0 2 0 C-1.24983667 11.83869071 -1.24983667 11.83869071 -7.5 16.625 C-11.71208963 19.87242829 -11.71208963 19.87242829 -15 24 C-15 24.99 -15 25.98 -15 27 C-14.34 27.33 -13.68 27.66 -13 28 C-12.67 28.99 -12.34 29.98 -12 31 C-11.34 31.33 -10.68 31.66 -10 32 C-10.33 32.99 -10.66 33.98 -11 35 C-11.9075 34.236875 -12.815 33.47375 -13.75 32.6875 C-16.114556 30.71516893 -18.51305942 28.81737966 -21 27 C-19.34178552 23.05459313 -16.65342999 20.06518851 -13.875 16.875 C-9.61801486 11.93554916 -5.52105548 6.91214947 -1.55859375 1.73046875 C-0.78708984 0.87388672 -0.78708984 0.87388672 0 0 Z " fill="#B35000" transform="translate(55,183)"/>
<path d="M0 0 C7.89134392 1.82509055 15.30465774 4.56582695 22.80419922 7.57446289 C23.54814941 7.87215576 24.29209961 8.16984863 25.05859375 8.4765625 C25.72173584 8.74549316 26.38487793 9.01442383 27.06811523 9.29150391 C29.02532983 10.00928942 30.97004755 10.53144074 33 11 C33 11.66 33 12.32 33 13 C29.37 13.66 25.74 14.32 22 15 C22 14.34 22 13.68 22 13 C21.33355469 12.75121094 20.66710937 12.50242188 19.98046875 12.24609375 C16.31100248 10.71193944 12.82668447 8.92014358 9.3125 7.0625 C8.63638672 6.71509766 7.96027344 6.36769531 7.26367188 6.00976562 C3.95393198 4.26103738 2.11216222 3.16824334 0 0 Z " fill="#5F2B00" transform="translate(149,226)"/>
<path d="M0 0 C1.74109047 3.48218094 0.05008132 7.14832412 -0.75292969 10.83398438 C-1.68651865 15.22122871 -2.28818819 19.5323599 -2.75 24 C-3.53354617 29.57417493 -5.26494888 32.32331406 -9.5390625 35.92578125 C-10.02117187 36.28027344 -10.50328125 36.63476562 -11 37 C-11 34 -11 34 -9.53125 32.13671875 C-7.66292974 29.5296494 -7.60998744 27.98838741 -7.5 24.8125 C-7.26287021 21.01842341 -6.7668662 17.87396479 -5.4375 14.3125 C-3.84492674 10.02956027 -3.75196071 6.547387 -4 2 C-2.68 1.34 -1.36 0.68 0 0 Z " fill="#4C1D0C" transform="translate(184,129)"/>
<path d="M0 0 C0.66 0.33 1.32 0.66 2 1 C1.52908936 1.67506592 1.05817871 2.35013184 0.57299805 3.0456543 C-1.28578535 6.53675129 -1.69988004 9.34727068 -2.16796875 13.26953125 C-2.29477776 14.29103523 -2.29477776 14.29103523 -2.42414856 15.33317566 C-2.68958025 17.49178556 -2.93876596 19.65190899 -3.1875 21.8125 C-3.36546387 23.2833333 -3.5444894 24.75403856 -3.72460938 26.22460938 C-4.16203302 29.81500683 -4.58491649 33.40694324 -5 37 C-4.34 37 -3.68 37 -3 37 C-2.46915208 39.91516484 -1.95000945 42.83160557 -1.4375 45.75 C-1.28603516 46.575 -1.13457031 47.4 -0.97851562 48.25 C-0.83994141 49.04921875 -0.70136719 49.8484375 -0.55859375 50.671875 C-0.42767334 51.4050293 -0.29675293 52.13818359 -0.16186523 52.89355469 C0.01247412 55.16233287 -0.33125193 56.83778579 -1 59 C-1.33 57.35 -1.66 55.7 -2 54 C-2.66 54 -3.32 54 -4 54 C-4.66 49.38 -5.32 44.76 -6 40 C-6.33 40 -6.66 40 -7 40 C-7.26512073 32.6406143 -6.26312471 25.58372306 -5.1875 18.3125 C-5.02185547 17.10271484 -4.85621094 15.89292969 -4.68554688 14.64648438 C-4.51474609 13.48052734 -4.34394531 12.31457031 -4.16796875 11.11328125 C-4.01610107 10.05923096 -3.8642334 9.00518066 -3.70776367 7.91918945 C-2.95413408 4.81082482 -1.77860074 2.63975388 0 0 Z " fill="#883A08" transform="translate(125,119)"/>
<path d="M0 0 C1.87516756 1.42196742 3.5416317 2.97672096 5.25390625 4.58984375 C7.84810859 6.68493781 10.81544183 7.10608893 14 8 C16.80979911 9.83032688 19.41582196 11.86553606 22 14 C19 14 19 14 16.25 12.125 C12.84949309 9.90159163 9.89335895 9.04821203 6 8 C5.34 7.34 4.68 6.68 4 6 C1.81254224 5.22960999 -0.40008429 4.52938697 -2.625 3.875 C-3.81351563 3.52179687 -5.00203125 3.16859375 -6.2265625 2.8046875 C-7.14179687 2.53914063 -8.05703125 2.27359375 -9 2 C-9.33 3.65 -9.66 5.3 -10 7 C-10.66 7 -11.32 7 -12 7 C-12.33 7.66 -12.66 8.32 -13 9 C-13 7.02 -13 5.04 -13 3 C-12.34 3 -11.68 3 -11 3 C-11 2.01 -11 1.02 -11 0 C-7.10710007 -1.40144398 -3.97164668 -1.00974068 0 0 Z " fill="#8F613A" transform="translate(102,19)"/>
<path d="M0 0 C5.36964364 1.51637905 8.75233583 5.12686109 12.6875 8.875 C13.36361328 9.50019531 14.03972656 10.12539062 14.73632812 10.76953125 C17.84729023 13.69785976 20.24717195 16.05007127 22 20 C21.01 20.33 20.02 20.66 19 21 C18.731875 21.5775 18.46375 22.155 18.1875 22.75 C16.44866056 26.04464314 13.92354664 27.71200698 11 30 C12.66751148 26.05860922 15.22710649 23.2107188 18 20 C13.63236025 14.66177364 8.89047343 9.81752341 3.96386719 5.00097656 C2.62546046 3.6844971 1.31041666 2.3443433 0 1 C0 0.67 0 0.34 0 0 Z " fill="#6F3100" transform="translate(62,187)"/>
<path d="M0 0 C0.33 0 0.66 0 1 0 C1.33 4.95 1.66 9.9 2 15 C2.66 15 3.32 15 4 15 C6.3992233 19.64849515 6.19957409 23.91086074 6 29 C5.34 29 4.68 29 4 29 C4 27.02 4 25.04 4 23 C3.01 23 2.02 23 1 23 C-1.327772 15.72571249 -1.44364779 8.60391683 -1 1 C-0.67 0.67 -0.34 0.34 0 0 Z " fill="#9D4700" transform="translate(119,158)"/>
<path d="M0 0 C0.66 0.33 1.32 0.66 2 1 C1.01 3.97 0.02 6.94 -1 10 C-0.34 10.33 0.32 10.66 1 11 C-0.32 11.99 -1.64 12.98 -3 14 C-3 13.34 -3 12.68 -3 12 C-7.66399644 12.12770647 -7.66399644 12.12770647 -11.578125 14.40234375 C-12.78844931 15.88046971 -13.90220903 17.43647953 -15 19 C-15.33 18.01 -15.66 17.02 -16 16 C-12.8243507 11.47710555 -9.60220704 9.06813803 -5 6 C-3.1875409 4.08315844 -1.61646036 2.09188988 0 0 Z " fill="#6A290F" transform="translate(151,87)"/>
<path d="M0 0 C0 0.99 0 1.98 0 3 C-1.62053812 4.38903267 -3.29705213 5.71332828 -5 7 C-7.99771606 9.70525595 -10.24698506 12.23551184 -12.1875 15.75 C-14 19 -14 19 -16 20 C-16.50217353 21.95659633 -16.50217353 21.95659633 -16.8125 24.25 C-17.74657857 29.01152244 -19.28156988 30.96654385 -23 34 C-18.69934641 20.54901961 -18.69934641 20.54901961 -15 15 C-14.34 15 -13.68 15 -13 15 C-12.89171875 14.41347656 -12.7834375 13.82695313 -12.671875 13.22265625 C-11.2208703 8.42253024 -7.26126323 4.84084215 -3.1875 2.125 C-2.1046875 1.568125 -2.1046875 1.568125 -1 1 C-0.67 0.67 -0.34 0.34 0 0 Z " fill="#78320A" transform="translate(147,90)"/>
<path d="M0 0 C3.35451069 4.37544873 4.15087622 6.82642566 4.5 12.375 C4.73143104 16.03656971 4.95765335 19.47339385 6 23 C4.0625 22.625 4.0625 22.625 2 22 C-1.13462645 15.73074711 -0.13119389 6.85123649 0 0 Z " fill="#C05500" transform="translate(86,184)"/>
<path d="M0 0 C0 0.99 0 1.98 0 3 C-0.99 3 -1.98 3 -3 3 C-2.01 2.01 -1.02 1.02 0 0 Z M-5 4 C-4.34 4.33 -3.68 4.66 -3 5 C-3.42152344 5.47050781 -3.84304687 5.94101563 -4.27734375 6.42578125 C-4.82519531 7.04839844 -5.37304688 7.67101562 -5.9375 8.3125 C-6.75541016 9.23482422 -6.75541016 9.23482422 -7.58984375 10.17578125 C-9.20081559 12.05241958 -9.20081559 12.05241958 -10 15 C-11.29103643 16.3743291 -12.6256709 17.70896357 -14 19 C-14.66 19.66 -15.32 20.32 -16 21 C-15.7348376 14.63610247 -13.46680217 10.55048933 -9 6 C-6.92578125 4.70703125 -6.92578125 4.70703125 -5 4 Z " fill="#823B02" transform="translate(144,90)"/>
<path d="M0 0 C0.5775 0.45375 1.155 0.9075 1.75 1.375 C3.7800333 2.84113516 5.73539843 3.94857784 8 5 C5.69 5 3.38 5 1 5 C1 5.66 1 6.32 1 7 C-0.65 7 -2.3 7 -4 7 C-4 7.66 -4 8.32 -4 9 C-4.66 9 -5.32 9 -6 9 C-6.33 10.65 -6.66 12.3 -7 14 C-7.66 14 -8.32 14 -9 14 C-9.33 12.68 -9.66 11.36 -10 10 C-9.34 10 -8.68 10 -8 10 C-7.67 8.35 -7.34 6.7 -7 5 C-5.35 5 -3.7 5 -2 5 C-1.855625 4.360625 -1.71125 3.72125 -1.5625 3.0625 C-1 1 -1 1 0 0 Z " fill="#AB6225" transform="translate(41,7)"/>
<path d="M0 0 C1 2 1 2 1.27734375 3.8203125 C2.60592618 7.82760437 6.12777687 10.44231145 9.06640625 13.3671875 C11.37547599 16.51125418 11.39464475 18.18695351 11 22 C10.608125 21.443125 10.21625 20.88625 9.8125 20.3125 C7.96406897 17.84937133 7.96406897 17.84937133 5.3125 15.375 C3 13 3 13 3 11 C2.34 11 1.68 11 1 11 C-1.1875 8.75 -1.1875 8.75 -3 6 C-2.82560493 2.94808622 -2.18741485 2.18741485 0 0 Z " fill="#5D2A00" transform="translate(48,202)"/>
<path d="M0 0 C6.875 2.75 6.875 2.75 8 5 C8.825 5.33 9.65 5.66 10.5 6 C13 7 13 7 14 9 C16.30965848 10.05352843 18.6429774 11.05719096 21 12 C21 12.66 21 13.32 21 14 C22.1446875 14.4021875 22.1446875 14.4021875 23.3125 14.8125 C25.87380884 15.94424112 27.19692938 16.91223401 29 19 C28.67 19.66 28.34 20.32 28 21 C26 19.625 26 19.625 24 18 C24 17.34 24 16.68 24 16 C21.525 15.505 21.525 15.505 19 15 C18.67 14.01 18.34 13.02 18 12 C15.525 11.505 15.525 11.505 13 11 C12.67 10.01 12.34 9.02 12 8 C10.35 7.67 8.7 7.34 7 7 C6.67 6.01 6.34 5.02 6 4 C4.35 3.67 2.7 3.34 1 3 C0.67 2.01 0.34 1.02 0 0 Z " fill="#C2AE9D" transform="translate(56,15)"/>
<path d="M0 0 C6.65337052 -0.3501774 11.69177587 0.1186435 16.9375 4.6875 C17.4634375 5.3371875 17.4634375 5.3371875 18 6 C17.67 6.66 17.34 7.32 17 8 C16.46375 7.360625 15.9275 6.72125 15.375 6.0625 C12.55632807 3.61470596 10.66139268 3.33285388 7 3 C7.66 4.32 8.32 5.64 9 7 C8.236875 6.67 7.47375 6.34 6.6875 6 C4.00930865 4.82563314 4.00930865 4.82563314 1 5 C0.67 3.35 0.34 1.7 0 0 Z " fill="#937D82" transform="translate(67,46)"/>
<path d="M0 0 C7.50769231 0.49230769 7.50769231 0.49230769 10 3.0625 C10.33 3.701875 10.66 4.34125 11 5 C9.68 4.67 8.36 4.34 7 4 C6.67 4.99 6.34 5.98 6 7 C5.34 7 4.68 7 4 7 C4.66 8.32 5.32 9.64 6 11 C3.04590299 9.62845496 0.55991624 8.01136276 -2 6 C-1.67 4.68 -1.34 3.36 -1 2 C0.65 2.99 2.3 3.98 4 5 C2.68 3.35 1.36 1.7 0 0 Z " fill="#53353C" transform="translate(72,48)"/>
<path d="M0 0 C2.625 0.375 2.625 0.375 5 1 C5.125 3.875 5.125 3.875 5 7 C4.34 7.66 3.68 8.32 3 9 C0.375 8.625 0.375 8.625 -2 8 C-2.125 5.125 -2.125 5.125 -2 2 C-1.34 1.34 -0.68 0.68 0 0 Z " fill="#2E171C" transform="translate(111,51)"/>
<path d="M0 0 C0 3 0 3 -0.8125 4.875 C-0.874375 5.57625 -0.93625 6.2775 -1 7 C1.35412766 9.60414714 1.35412766 9.60414714 4 12 C4.33 12.99 4.66 13.98 5 15 C6.29355827 16.37195574 7.62298702 17.71182656 9 19 C8.67 19.99 8.34 20.98 8 22 C7.38125 21.360625 6.7625 20.72125 6.125 20.0625 C4.17402388 17.96116416 4.17402388 17.96116416 2 17 C2 15.68 2 14.36 2 13 C1.01 12.67 0.02 12.34 -1 12 C-1 11.01 -1 10.02 -1 9 C-1.99 8.67 -2.98 8.34 -4 8 C-3.50168276 4.31245243 -2.89932357 2.39509338 0 0 Z " fill="#9B4500" transform="translate(43,202)"/>
<path d="M0 0 C7.45840708 2.13345133 7.45840708 2.13345133 9.5625 5.5 C10 8 10 8 9 11 C4.79827151 8.47896291 2.11893556 6.47330841 0 2 C0 1.34 0 0.68 0 0 Z " fill="#843A00" transform="translate(141,227)"/>
<path d="M0 0 C1.65 0 3.3 0 5 0 C3.68 0.33 2.36 0.66 1 1 C0.66408104 3.27045229 0.33134935 5.54137633 0 7.8125 C-0.185625 9.07707031 -0.37125 10.34164063 -0.5625 11.64453125 C-1.06464492 14.93182508 -1.06464492 14.93182508 -1 18 C-3.0625 15.875 -3.0625 15.875 -5 13 C-4.81842617 9.91324488 -4.37817818 7.75635635 -3 5 C-2.34 5 -1.68 5 -1 5 C-0.67 3.35 -0.34 1.7 0 0 Z " fill="#A9815F" transform="translate(93,21)"/>
<path d="M0 0 C2.31 0 4.62 0 7 0 C7 3.63 7 7.26 7 11 C4.26752652 12.36623674 2.01801098 12.128426 -1 12 C-2 11 -2 11 -2.0625 7.4375 C-2.041875 6.303125 -2.02125 5.16875 -2 4 C-1.67 4 -1.34 4 -1 4 C-1 5.65 -1 7.3 -1 9 C0.66611905 9.042721 2.33382885 9.04063832 4 9 C5.35618499 7.87465895 5.35618499 7.87465895 5.0625 4.9375 C5.041875 3.968125 5.02125 2.99875 5 2 C3.02 2.33 1.04 2.66 -1 3 C-0.67 2.01 -0.34 1.02 0 0 Z " fill="#897E80" transform="translate(110,50)"/>
<path d="M0 0 C0.99 0 1.98 0 3 0 C5.3992233 4.64849515 5.19957409 8.91086074 5 14 C4.34 14 3.68 14 3 14 C1.79534844 9.34201396 0.71452588 4.76350585 0 0 Z " fill="#904200" transform="translate(120,173)"/>
<path d="M0 0 C2.27474277 3.41211416 2.56629644 5.6568529 3.125 9.6875 C3.29257813 10.86699219 3.46015625 12.04648438 3.6328125 13.26171875 C3.75398438 14.16535156 3.87515625 15.06898438 4 16 C3.34 16 2.68 16 2 16 C0.24836544 12.22777911 -0.22490027 9.333361 -0.125 5.1875 C-0.10695313 4.21167969 -0.08890625 3.23585937 -0.0703125 2.23046875 C-0.04710938 1.49441406 -0.02390625 0.75835937 0 0 Z " fill="#A84B00" transform="translate(90,192)"/>
<path d="M0 0 C0 3 0 3 -1.875 5.3125 C-4.13402842 8.16950653 -4.92869256 10.5565118 -6 14 C-6.66 14.66 -7.32 15.32 -8 16 C-7.71583773 9.1801056 -4.79439516 4.79439516 0 0 Z " fill="#8D4001" transform="translate(136,95)"/>
<path d="M0 0 C1.32 0.33 2.64 0.66 4 1 C4 1.66 4 2.32 4 3 C4.763125 3.268125 5.52625 3.53625 6.3125 3.8125 C8.87380884 4.94424112 10.19692938 5.91223401 12 8 C11.67 8.66 11.34 9.32 11 10 C9 8.625 9 8.625 7 7 C7 6.34 7 5.68 7 5 C6.21625 4.9175 5.4325 4.835 4.625 4.75 C2 4 2 4 0.6875 1.9375 C0.460625 1.298125 0.23375 0.65875 0 0 Z " fill="#BF9A7C" transform="translate(73,26)"/>
<path d="M0 0 C0.99 1.485 0.99 1.485 2 3 C-2.29 2.01 -6.58 1.02 -11 0 C-11 -0.33 -11 -0.66 -11 -1 C-6.71913541 -2.25907782 -4.06609565 -1.80715362 0 0 Z " fill="#964803" transform="translate(53,10)"/>
<path d="M0 0 C1.17024576 3.51073727 0.67289278 5.41123848 0 9 C0 9.99 0 10.98 0 12 C-1.5625 10.9375 -1.5625 10.9375 -3 9 C-2.6875 5.3125 -2.6875 5.3125 -2 2 C-1.34 2 -0.68 2 0 2 C0 1.34 0 0.68 0 0 Z " fill="#BB997E" transform="translate(92,27)"/>
<path d="M0 0 C2 1.8125 2 1.8125 4 4 C4 4.99 4 5.98 4 7 C0.7 7 -2.6 7 -6 7 C-6 6.67 -6 6.34 -6 6 C-3.69 6 -1.38 6 1 6 C0.67 4.02 0.34 2.04 0 0 Z " fill="#9D8A8F" transform="translate(85,54)"/>
<path d="M0 0 C2.125 0.375 2.125 0.375 4 1 C3.01 1.495 3.01 1.495 2 2 C2 2.99 2 3.98 2 5 C1.01 5 0.02 5 -1 5 C-0.67 5.99 -0.34 6.98 0 8 C-0.66 8 -1.32 8 -2 8 C-2.125 5.125 -2.125 5.125 -2 2 C-1.34 1.34 -0.68 0.68 0 0 Z " fill="#5B4248" transform="translate(111,51)"/>
<path d="M0 0 C1.98 0 3.96 0 6 0 C4.68 0.33 3.36 0.66 2 1 C1.67 2.65 1.34 4.3 1 6 C0.34 6 -0.32 6 -1 6 C-1.33 6.66 -1.66 7.32 -2 8 C-2 6.02 -2 4.04 -2 2 C-1.34 2 -0.68 2 0 2 C0 1.34 0 0.68 0 0 Z " fill="#935928" transform="translate(91,20)"/>
<path d="M0 0 C0.66 0 1.32 0 2 0 C1.67 2.97 1.34 5.94 1 9 C0.34 9 -0.32 9 -1 9 C-0.67 6.03 -0.34 3.06 0 0 Z " fill="#B35200" transform="translate(114,152)"/>
<path d="M0 0 C0.66 0.33 1.32 0.66 2 1 C1.6875 3.375 1.6875 3.375 1 6 C0.01 6.66 -0.98 7.32 -2 8 C-2.20086443 4.28400809 -2.1519437 3.22791555 0 0 Z " fill="#4E1D0D" transform="translate(181,114)"/>
<path d="M0 0 C0.185625 0.9590625 0.185625 0.9590625 0.375 1.9375 C0.684375 2.9584375 0.684375 2.9584375 1 4 C1.66 4.33 2.32 4.66 3 5 C1.68 5.99 0.36 6.98 -1 8 C-1 7.34 -1 6.68 -1 6 C-1.66 5.67 -2.32 5.34 -3 5 C-2.01 3.35 -1.02 1.7 0 0 Z " fill="#501816" transform="translate(149,93)"/>
<path d="M0 0 C1.5 1.25 1.5 1.25 3 3 C3 4.32 3 5.64 3 7 C0.69 7 -1.62 7 -4 7 C-2.68 6.67 -1.36 6.34 0 6 C0 4.02 0 2.04 0 0 Z " fill="#613943" transform="translate(83,53)"/>
<path d="M0 0 C1.98 0.99 3.96 1.98 6 3 C6.33 2.34 6.66 1.68 7 1 C7 1.99 7 2.98 7 4 C2.25 5.125 2.25 5.125 0 4 C0 2.68 0 1.36 0 0 Z " fill="#694951" transform="translate(70,50)"/>
</svg>
