<?xml version="1.0" encoding="UTF-8"?>
<svg id="Layer_1" xmlns="http://www.w3.org/2000/svg" width="377.7" height="519.47" viewBox="0 0 377.7 519.47">
  <defs>
    <style>
      .cls-1 {
        fill: #050a10;
      }

      .cls-2 {
        fill: #111;
      }

      .cls-3 {
        fill: #15090b;
      }

      .cls-4 {
        fill: #1d2125;
      }

      .cls-5 {
        fill: #fcc9b0;
      }

      .cls-6 {
        fill: #1f1815;
      }

      .cls-7 {
        fill: #2c2928;
      }

      .cls-8 {
        fill: #15161a;
      }

      .cls-9 {
        fill: #060809;
      }

      .cls-10 {
        fill: #050606;
      }

      .cls-11 {
        fill: #080708;
      }

      .cls-12 {
        fill: #011121;
      }

      .cls-13 {
        fill: #1f0207;
      }

      .cls-14 {
        fill: #151515;
      }

      .cls-15 {
        fill: #161619;
      }

      .cls-16 {
        fill: #fbc9af;
      }

      .cls-17 {
        fill: #0a1018;
      }

      .cls-18 {
        fill: #08121c;
      }

      .cls-19 {
        fill: #170205;
      }

      .cls-20 {
        fill: #201d1c;
      }

      .cls-21 {
        fill: #f9163b;
      }

      .cls-22 {
        fill: #1c0d10;
      }

      .cls-23 {
        fill: #007bf7;
      }

      .cls-24 {
        fill: #12100e;
      }

      .cls-25 {
        fill: #0d151d;
      }

      .cls-26 {
        fill: #04090f;
      }

      .cls-27 {
        fill: #150105;
      }

      .cls-28 {
        fill: #1c1c1c;
      }

      .cls-29 {
        fill: #171413;
      }

      .cls-30 {
        fill: #f4f4f4;
      }

      .cls-31 {
        fill: #1f1c1b;
      }

      .cls-32 {
        fill: #0d131a;
      }

      .cls-33 {
        fill: #160a0c;
      }

      .cls-34 {
        fill: #171717;
      }

      .cls-35 {
        fill: #172029;
      }

      .cls-36 {
        fill: #1c2024;
      }

      .cls-37 {
        fill: #070608;
      }

      .cls-38 {
        fill: #001429;
      }

      .cls-39 {
        fill: #220e11;
      }

      .cls-40 {
        fill: #0b0607;
      }

      .cls-41 {
        fill: #262527;
      }

      .cls-42 {
        fill: #1d1a18;
      }

      .cls-43 {
        fill: #001224;
      }

      .cls-44 {
        fill: #040c13;
      }

      .cls-45 {
        fill: #12161a;
      }

      .cls-46 {
        fill: #fcc9af;
      }

      .cls-47 {
        fill: #151c23;
      }

      .cls-48 {
        fill: #1b0206;
      }

      .cls-49 {
        fill: #0c151d;
      }

      .cls-50 {
        fill: #060c12;
      }

      .cls-51 {
        fill: #071321;
      }

      .cls-52 {
        fill: #1a2026;
      }

      .cls-53 {
        fill: #0b0d0f;
      }

      .cls-54 {
        fill: #141414;
      }

      .cls-55 {
        fill: #242122;
      }

      .cls-56 {
        fill: #0b1017;
      }

      .cls-57 {
        fill: #050c13;
      }

      .cls-58 {
        fill: #282c30;
      }

      .cls-59 {
        fill: #020202;
      }

      .cls-60 {
        fill: #070605;
      }

      .cls-61 {
        fill: #353433;
      }

      .cls-62 {
        fill: #080b0e;
      }

      .cls-63 {
        fill: #0f1720;
      }

      .cls-64 {
        fill: #262626;
      }

      .cls-65 {
        fill: #000d1b;
      }

      .cls-66 {
        fill: #1d1617;
      }

      .cls-67 {
        fill: #f9f9f9;
      }

      .cls-68 {
        fill: #17191d;
      }

      .cls-69 {
        fill: #040404;
      }

      .cls-70 {
        fill: #007dfb;
      }

      .cls-71 {
        fill: #0a0102;
      }

      .cls-72 {
        fill: #1d1714;
      }

      .cls-73 {
        fill: #fafafa;
      }

      .cls-74 {
        fill: #0d0f12;
      }

      .cls-75 {
        fill: #060709;
      }

      .cls-76 {
        fill: #000b16;
      }

      .cls-77 {
        fill: #0c151e;
      }

      .cls-78 {
        fill: #14080a;
      }

      .cls-79 {
        fill: #0f1317;
      }

      .cls-80 {
        fill: #121b27;
      }

      .cls-81 {
        fill: #101010;
      }

      .cls-82 {
        fill: #070c11;
      }

      .cls-83 {
        fill: #1c1613;
      }

      .cls-84 {
        fill: #20262d;
      }

      .cls-85 {
        fill: #010509;
      }

      .cls-86 {
        fill: #0d0c0b;
      }

      .cls-87 {
        fill: #001327;
      }

      .cls-88 {
        fill: #0d141b;
      }

      .cls-89 {
        fill: #3c3938;
      }

      .cls-90 {
        fill: #070e15;
      }

      .cls-91 {
        fill: #fdcab0;
      }

      .cls-92 {
        fill: #007efd;
      }

      .cls-93 {
        fill: #090c10;
      }

      .cls-94 {
        fill: #070709;
      }

      .cls-95 {
        fill: #001c3a;
      }

      .cls-96 {
        fill: #182737;
      }

      .cls-97 {
        fill: #131313;
      }

      .cls-98 {
        fill: #202020;
      }

      .cls-99 {
        fill: #fbfbfb;
      }

      .cls-100 {
        fill: #fcfcfc;
      }

      .cls-101 {
        fill: #090a0c;
      }

      .cls-102 {
        fill: #2e2520;
      }

      .cls-103 {
        fill: #181b20;
      }

      .cls-104 {
        fill: #0f1218;
      }

      .cls-105 {
        fill: #2d2d2d;
      }

      .cls-106 {
        fill: #191919;
      }

      .cls-107 {
        fill: #0c0e11;
      }

      .cls-108 {
        fill: #08121d;
      }

      .cls-109 {
        fill: #0c0f13;
      }

      .cls-110 {
        fill: #080e15;
      }

      .cls-111 {
        fill: #fb163c;
      }

      .cls-112 {
        fill: #161412;
      }

      .cls-113 {
        fill: #333;
      }

      .cls-114 {
        fill: #201916;
      }

      .cls-115 {
        fill: #0e1216;
      }

      .cls-116 {
        fill: #090909;
      }

      .cls-117 {
        fill: #0e1115;
      }

      .cls-118 {
        fill: #070a0f;
      }

      .cls-119 {
        fill: #007cfa;
      }

      .cls-120 {
        fill: #161616;
      }

      .cls-121 {
        fill: #16110f;
      }

      .cls-122 {
        fill: #e8e8e8;
      }

      .cls-123 {
        fill: #fdcbb1;
      }

      .cls-124 {
        fill: #00050b;
      }

      .cls-125 {
        fill: #111113;
      }

      .cls-126 {
        fill: #fdfdfd;
      }

      .cls-127 {
        fill: #fd163c;
      }
    </style>
  </defs>
  <path class="cls-107" d="M120.47.07c61.51-1.63,120.2,23.68,165,66,1.31,1.13,2.62,2.26,3.94,3.38,11.04,9.66,20.41,20.5,29.06,32.31q.64.86,1.3,1.74c2.32,3.22,4.08,6.29,5.53,9.99q2.59,6.48,7.18,11.59c6.51,2.06,13.52,1.4,20.26,1.08,8.15-.23,16.52,1.06,23.74,4.92,1.53,1.53,1.18,2.94,1.21,5.07-.06,4.65-.96,8.47-2.59,12.8-.26.71-.52,1.42-.78,2.16-2.26,5.96-5.02,11.63-7.97,17.28-.42.81-.84,1.61-1.27,2.44-1.72,3.19-3.15,5.82-5.8,8.33-2.55,2.69-2.93,5.64-3.62,9.16-3.38,15.05-10.56,29.13-19.29,41.8-1.81,2.82-2.95,5.37-4.09,8.51-3.11,7.77-7.86,15.48-13.81,21.44.51.27,1.01.54,1.53.81q5.04,3.04,6.18,6.09c.25,3.13-.09,5.21-1.91,7.8-5.92,5.66-13.93,8.31-21.99,8.61-5.09.33-7.1,2.39-10.65,5.84-13.71,11.71-37.29,10.44-54.16,10.84.16.57.33,1.14.49,1.73.51,2.29.62,4.26.6,6.6,0,.8,0,1.6,0,2.42,0,.83-.02,1.65-.03,2.5,0,.84,0,1.68-.01,2.55-.01,2.07-.03,4.14-.05,6.2-3.57-.61-6.66-1.61-10-3-8.36-3.12-17.16-3.21-26-3l-1,4c1.16-.02,2.32-.05,3.52-.07q24.82-.35,33.05,5.54c1.99,2.13,2.46,4.27,2.57,7.14-.22,3.9-.64,7.78-1.18,11.65.05,3.33.98,4.2,3.04,6.73q.69,2.75,1,5,1.78-.85,3.59-1.72c5.12-2.45,10.26-4.87,15.41-7.28.7-.33,1.41-.66,2.13-1,23.76-11.06,51.98-21.71,78.1-13.27,3.68,1.68,6.92,3.43,8.67,7.22.99,19.96-25.07,46.23-37.09,59.86-1.59,1.74-3.2,3.47-4.81,5.19-.5.53-.99,1.06-1.5,1.61-24.05,25.48-60.36,48.68-96.3,50.6q-14.17.27-20.2-3.2c-1.71-1.93-2.77-3.7-4-6-2.62,3.2-5.08,6.47-7.45,9.86-12.36,17.62-26.74,35.16-45.55,46.14-.6.35-1.19.7-1.81,1.06-10.5,6.01-21.36,9.57-33.19,11.94-.89.19-1.77.37-2.68.56-9.89,1.82-19.78,1.77-29.8,1.75-2.99,0-5.97.02-8.96.05q-43.31.14-57.56-9.36-.62-2.62,0-6c4.11-5.93,9.36-10.05,15.38-13.88.78-.51,1.56-1.01,2.37-1.53,2.41-1.55,4.83-3.07,7.26-4.59.74-.47,1.48-.94,2.25-1.42,11.9-7.45,23.59-13.03,37.25-16.58,10.05-2.77,14.22-8.3,19.5-17-.64-1.13-1.28-2.27-1.94-3.44-2.26-4.46-2.83-8.61-3.06-13.56-.72-.06-1.44-.12-2.19-.19-3.86-1.11-5.38-2.63-7.81-5.81-1.12-4.57-1.23-7.68,0-12.19.94-3.6,1.4-5.4,0-8.81-2.56-2.05-4.58-2.06-7.88-2.38-4.33-.51-6.83-1.62-10.12-4.62-4.06-6.11-5.65-11.73-6-19-.86-.08-1.72-.16-2.6-.24-11.75-2.62-24.02-14.84-30.4-24.76-4.23-6.69-6.68-13.01-5-21q2.5-2.94,5-5,.14-3.73-.5-6.25c-1.21-6.66-.98-11.83,2.5-17.75,3.26-2.11,5.12-3,9-3,.04-.97.08-1.94.12-2.94.91-6.32,4.94-11.26,9.5-15.5,3.32-1.54,5.72-1.97,9.31-2.44,5.25-.72,7.77-1.99,11.5-5.66,3.75-3.51,8.14-4.64,13.13-4.9,7.24.31,11.73,5.26,16.54,10.23,4.08,4.73,7.18,9.38,7.21,15.77-.1,1.13-.21,2.27-.31,3.44h6c.03-.7.05-1.41.08-2.13,1.02-17.77,7.1-32.46,19.92-44.87,3.73-3.21,7.64-5.85,11.94-8.25q3.12-1.41,4.06-3.75c-33.23-.77-61.44,4.6-91,20q-1-1-1.31-4.56c.06-7.96,2.33-16.9,5.51-24.17.94-2.66.93-3.7-.2-6.27q-1.51-1.87-3.38-3.56c-.61-.58-1.21-1.16-1.84-1.75-.59-.56-1.18-1.11-1.79-1.68-.48-.51-.96-1.02-1.46-1.55-1.81-1.7-3.72-2.81-5.86-4.07-4.33-2.82-6.7-5.82-9.34-10.21-1.24-1.99-2.54-3.53-4.16-5.22-2.78-3.74-2.94-6.41-3.19-10.94q-.48-4.66-2-9c-.81-6.59.62-9.55,4.47-14.85,3.05-4.3,4.45-8.57,5.21-13.71.77-3.69,1.85-5.4,4.81-7.75,11.52-7.46,25.87-10.55,39.5-9.69q.48-2.33,0-5-2.42-2.18-5.69-3.94c-.58-.34-1.17-.68-1.77-1.03-9.08-5.18-18.4-9.42-28.54-12.03.31-3.02.97-3.97,3.23-6.08,34.55-25.37,77.28-35.45,119.69-29.46,2.4.42,4.73.89,7.08,1.54-6.58-27.3-19.01-50.84-38.45-71.18q-1.55-1.82-1.55-3.82ZM108.47,328.07c-.33,1.65-.66,3.3-1,5,.99-.66,1.98-1.32,3-2-.33-.99-.66-1.98-1-3h-1ZM168.08,352.38c-2.04,2.46-3.84,5.03-5.61,7.69-1.2,1.48-2.43,2.94-3.69,4.38-.54.62-1.08,1.24-1.63,1.88-4.5,4.68-9.77,8.09-15.68,10.75.26,3.83.71,7.38,2,11,1.93,1.61,3.56,2.33,5.93,3.12,2.76,1.17,4.2,2.55,6.07,4.88q.62,2.66,1,5.5.59,2.96,2,5.5c2.93,1.59,5.69,2.31,8.92,3.12,6.63,1.9,11.45,6.96,16.08,11.88q1.23-6.1-.5-11.88c-2.69-5.6-.94-11.68.12-17.62q.59-2.62-.62-5.5c-.86-9.77,2.86-17.42,9-24.89,4.16-4.38,9-7.77,14-11.11q.83-1.92,1.25-4.06c.17-.71.34-1.43.52-2.16.08-.59.15-1.17.23-1.78q-1.09-1.31-3.77-1.2c-11.23.19-27.48,2.2-35.63,10.51ZM127.47,347.51c-1.03,1.5-2.04,3.02-3,4.56q.99.49,2,1,2.65-1.11,5.5-2.75,1.47-.8,2.97-1.61,2.76-1.55,4.53-4.64c-6.05-1.81-8.06-1.71-12,3.44Z"/>
  <path class="cls-92" d="M125.47,2.07c59.22-2.57,117.05,28.3,159.88,67.25,2.06,1.9,4.09,3.82,6.12,5.75.53.51,1.07,1.01,1.62,1.53,21.15,20.15,40.63,47.21,46.38,76.47.04,2.33.04,4.67,0,7-.99.33-1.98.66-3,1,.81.03,1.62.05,2.45.08q8.78.47,12.74,2.8c4.44,5.21,3.16,12.68,2.81,19.12-1.9,14.39-9.78,28.59-17,41-1.04-3.21-.9-5.22-.07-8.46,1.33-6.08,1.29-11.96,1.2-18.16q-.01-1.65-.03-3.33c-.02-2.68-.06-5.36-.1-8.04-2.97.33-4.6.62-6.81,2.69-4.25,5.75-7.8,11.67-11.13,18-1.04,1.94-2.09,3.88-3.13,5.82q-.75,1.4-1.52,2.84-9.87,18.46-15.42,22.65-2.88.38-5,0c-4.98-8.6-5.22-17.8-5.38-27.5-.64-21.32-5.85-42.52-20.64-58.68-8.81-8.09-18.48-10.33-30.2-10.13-9.35.76-17.22,4.61-23.79,11.31-12.72,16.64-12.97,38.47-10.59,58.46.89,5.59,2.01,11.13,3.33,16.64q.25,1.9-.75,4.9c-.44-.44-.88-.87-1.33-1.32-7.08-6.65-14.98-11.92-24.92-12.37-6.89.4-11,2.84-15.72,7.73-1.73,1.95-3.38,3.94-5.03,5.96-.66.66-1.32,1.32-2,2,.65-4.83,1.49-9.59,2.44-14.38,3.26-17.16,7.01-37.61,1.56-54.62-.3-.93-.59-1.85-.89-2.8-5.89-16.02-18.44-26.93-31.17-37.63q-2.94-2.56-4.75-5.06c-4.77-5.45-12.06-9.33-19.19-10.5-6.12-.08-10.14,1.09-15,5-.66.66-1.32,1.32-2,2-1.91.36-3.83.64-5.75.88-5.23.78-8.16,1.87-12.25,5.12-.99.33-1.98.66-3,1q-2.75-1.48-6-3.62c-8.85-5.68-17.82-9.66-28-12.38,1.51-4.37,4.85-6.34,8.56-8.75.67-.44,1.33-.87,2.02-1.32,33.52-21.37,76.78-28.89,115.67-20.58.9.22,1.81.43,2.74.66-4.63-25.49-15.78-46.88-31.61-67.18-2.21-2.89-4.3-5.85-6.39-8.82Z"/>
  <path class="cls-94" d="M120.47.07c61.51-1.63,120.2,23.68,165,66,1.31,1.13,2.62,2.26,3.94,3.38,11.04,9.66,20.41,20.5,29.06,32.31q.64.86,1.3,1.74c2.32,3.22,4.08,6.29,5.53,9.99q2.59,6.48,7.18,11.59c6.51,2.06,13.52,1.4,20.26,1.08,8.15-.23,16.52,1.06,23.74,4.92,1.53,1.53,1.18,2.94,1.21,5.07-.06,4.65-.96,8.47-2.59,12.8-.26.71-.52,1.42-.78,2.16-2.26,5.96-5.02,11.63-7.97,17.28-.42.81-.84,1.61-1.27,2.44-1.72,3.19-3.15,5.82-5.8,8.33-2.55,2.69-2.93,5.64-3.62,9.16-3.38,15.05-10.56,29.13-19.29,41.8-1.81,2.82-2.95,5.37-4.09,8.51-3.11,7.77-7.86,15.48-13.81,21.44.51.27,1.01.54,1.53.81q5.04,3.04,6.18,6.09c.25,3.13-.09,5.21-1.91,7.8-5.92,5.66-13.93,8.31-21.99,8.61-5.09.33-7.1,2.39-10.65,5.84-13.71,11.71-37.29,10.44-54.16,10.84.16.57.33,1.14.49,1.73.51,2.29.62,4.26.6,6.6,0,.8,0,1.6,0,2.42,0,.83-.02,1.65-.03,2.5,0,.84,0,1.68-.01,2.55-.01,2.07-.03,4.14-.05,6.2-3.57-.61-6.66-1.61-10-3-8.36-3.12-17.16-3.21-26-3l-1,4c1.16-.02,2.32-.05,3.52-.07q24.82-.35,33.05,5.54c1.99,2.13,2.46,4.27,2.57,7.14-.22,3.9-.64,7.78-1.18,11.65.05,3.33.98,4.2,3.04,6.73q.69,2.75,1,5,1.68-.87,3.39-1.75c1.47-.75,2.95-1.5,4.42-2.25.74-.38,1.48-.76,2.24-1.16.71-.36,1.42-.72,2.16-1.09.65-.34,1.31-.67,1.98-1.02q1.81-.73,4.81-.73-1,3-3.73,4.58c-1.14.55-2.28,1.1-3.46,1.67-8.98,4.6-13.61,10.2-16.81,19.75-1.13,4.31-2.11,8.64-3,13q.77-.56,1.56-1.13c2.36-1.71,4.71-3.41,7.07-5.12.81-.59,1.62-1.17,2.45-1.78,1.58-1.14,3.17-2.28,4.75-3.42,1.34-.96,2.67-1.92,3.99-2.9q1.58-1.13,4.18-2.65c.99.33,1.98.66,3,1-3.82,3.11-7.74,6.02-11.75,8.88-.62.44-1.23.88-1.86,1.33q-13.33,9.45-16.71,10.57c-3.83,1.75-6.48,4.45-9.49,7.35-.6.56-1.19,1.13-1.81,1.71-1.47,1.38-2.92,2.77-4.38,4.17-3.41-5.12-3.28-10.97-3-17,1.23-4.26,2.94-8.09,5-12l1-2c-11.48,8.34-20.73,16.68-27.35,29.44q-2.35,4.46-5.65,5.56c7.61-24.98,31.69-38.24,53-50q.23-4.67-1.81-8.81c-3.98-2.73-6.92-2.87-11.66-3.05q-2.52-.14-5.52-1.14-2.21.53-4.5,1.44c-2.79,1.04-4.48,1.56-7.5,1.56.33-4.29.66-8.58,1-13-.66,1.32-1.32,2.64-2,4q-3.1.69-7.06,1c-8.87.83-17.31,2.8-25.94,5q-.71-1.71-1-4,1.34-2.13,3.38-4.56c8.67-11.4,14.41-24.14,15.62-38.44.2-.72.4-1.44.61-2.18q.63-2.03-.93-4.51t-3.69-3.31c-5.09-.38-7.9-.05-12,3q-1.87,2.68-3.31,5.69c-.51.99-1.02,1.99-1.55,3.01-.38.76-.75,1.52-1.14,2.3-1.14-3.48-.9-6.25-.44-9.86.14-1.12.28-2.23.42-3.38q.23-1.74.46-3.51c.15-1.17.3-2.35.45-3.56.37-2.9.74-5.8,1.12-8.69,3.03,1.47,5.78,3.15,8.57,5.02,7.79,5.21,15.85,9.24,24.43,12.98.44,7.52-.71,13.84-3,21h2c1.28-6.66,2.34-13.25,3-20,.83.21,1.66.42,2.52.64,9.12,2.17,17.67,2.84,27.05,2.73q1.04,0,2.1-.01,28.94-.15,54.34-12.36l1-2c-1.05-.06-2.1-.12-3.19-.19-4.53-.97-6.14-2.06-8.81-5.81.08-3.95.8-5.7,3-9q-1.97.04-3.97.08c-4.9.09-9.8.15-14.7.2-2.11.03-4.23.06-6.34.1-3.05.06-6.11.09-9.16.11-.93.03-1.87.05-2.83.08-11.29,0-19.96-6.04-27.99-13.57-3.34-3.77-6.2-7.77-8.94-12q-5.08-7.52-12.06-13v-2c3.43,1.2,5.53,2.36,8,5-.12-.58-.24-1.15-.37-1.74-2.55-12.51-4.04-24.72-4.07-37.51q-.01-1.78-.03-3.6c.13-14.05,3.86-24.82,11.65-36.4,7.99-7.82,16.83-12.01,28.06-12.12,12.51.21,21.2,4.64,29.84,13.52,12.33,14.24,17.71,33.75,18.2,52.26q.15,15.72,4.71,30.6,3.62.33,6.76-1.27c5.3-6.25,8.98-13.23,12.68-20.48q12.88-25.09,19.56-30.25,2.75.25,5,1,.41,26.18-2,36c8.03-14.26,16.03-29.28,16.25-46,.03-1.2.05-2.39.08-3.62-.35-3.64-1.14-5.48-3.33-8.38-2.83-1.42-5.47-1.35-8.62-1.56-1.19-.08-2.38-.17-3.6-.25-.92-.06-1.83-.12-2.77-.18l1-2h3c-7.3-40.96-34.3-76.25-67-101-.66-.51-1.32-1.01-1.99-1.54-24.2-18.61-51.17-34.26-80.01-44.46-.79-.28-1.58-.56-2.39-.85-19.8-6.88-40.67-10.12-61.61-9.15.61.69,1.21,1.38,1.84,2.1,16,18.68,36.49,47.06,35.16,72.9-1.69-.14-3.38-.29-5.06-.44q-1.41-.12-2.85-.25c-2.11-.22-4.22-.49-6.32-.82-37.01-4.87-76.3,3.54-107.25,24.55-2.74,2.13-5.12,4.46-7.52,6.96q1.36.09,2.75.19c9.29,1.36,17.69,6.43,25.56,11.26,2.51,1.45,4.97,2.55,7.69,3.55.78-.64,1.57-1.28,2.38-1.94,3.61-2.83,5.24-3.18,9.75-3.12q1.37.01,2.76.03c.7.01,1.4.02,2.12.04v1c-.65.09-1.3.17-1.98.26-6.16.99-9.74,2.13-14.02,6.74q-1.4,2.65-2,5c2.31.33,4.62.66,7,1v1q-1.64.04-3.3.08c-15.06.5-35.33,1.56-46.7,12.92-.83,2.73-1.47,5.49-2.12,8.27-.9,2.78-2,4.52-3.88,6.73q-.62-1.75-1-4c.31-.62.62-1.23.94-1.87,1.13-2.27,1.38-4.01,1.69-6.51.8-3.76,1.85-5.55,4.88-7.94,11.52-7.46,25.87-10.55,39.5-9.69q.48-2.33,0-5-2.42-2.18-5.69-3.94c-.58-.34-1.17-.68-1.77-1.03-9.08-5.18-18.4-9.42-28.54-12.03.31-3.02.97-3.97,3.23-6.08,34.55-25.37,77.28-35.45,119.69-29.46,2.4.42,4.73.89,7.08,1.54-6.58-27.3-19.01-50.84-38.45-71.18q-1.55-1.82-1.55-3.82Z"/>
  <path class="cls-71" d="M348.27,335.97c2.28,2.19,3.04,3,3.2,6.11-4.84,23.47-26.25,46.21-42,63-.5.53-.99,1.06-1.5,1.61-24.05,25.48-60.36,48.68-96.3,50.6q-14.17.27-20.2-3.2c-1.71-1.93-2.77-3.7-4-6-2.62,3.2-5.08,6.47-7.45,9.86-12.36,17.62-26.74,35.16-45.55,46.14-.6.35-1.19.7-1.81,1.06-10.5,6.01-21.36,9.57-33.19,11.94q-1.33.28-2.68.56c-9.89,1.82-19.78,1.77-29.8,1.75-2.99,0-5.97.02-8.96.05q-43.31.14-57.56-9.36-.62-2.62,0-6c4.11-5.93,9.35-10.05,15.38-13.88q1.16-.75,2.34-1.52c2.42-1.55,4.85-3.08,7.28-4.61.8-.51,1.6-1.01,2.43-1.53,2.31-1.45,4.62-2.87,6.95-4.28.71-.44,1.41-.88,2.14-1.33q5-2.96,7.53-2.41.97.27,1.95.55,2.81-.88,5.81-2.25c18.48-7.46,33.56-6.38,52.19-.75-9.42-3.98-17.8-6.21-28-7q1.98-2.97,4-6c20.4.45,37.94,13.06,52,27,.88,1.07,1.74,2.15,2.59,3.24,2.43,2.78,3.91,3.76,7.41,4.76,1.77-1.44,3.54-2.87,5.31-4.31.99-.8,1.97-1.6,2.99-2.43q3.88-3.1,6.59-7.12c.26-5.08-4.76-9.52-7.89-13.14-6.92-6.96-14.81-11.25-23.59-15.37q-3.41-1.63-6.41-3.63c.73-.38,1.45-.76,2.2-1.14,15.65-8.57,28.21-21.61,35.8-37.86,10.17,1.58,17.4,6.12,24,14,1.96,3.2,2.92,5.48,3.5,9.19.56,3.12,1.23,3.76,3.5,5.81q.77-1.27,1.55-2.57c5.82-9.46,12.5-19.87,21.26-26.88,2.02-2.64,1.73-5.5,1.88-8.74q.1-1.91.2-3.86c.04-.98.07-1.95.11-2.96h1c.06.63.12,1.25.18,1.9.08.82.17,1.63.25,2.48q.12,1.22.25,2.46.21,2.21,1.32,4.16c.4-.42.8-.85,1.21-1.29q11.66-12.03,16.66-13.13c2.53-.7,4.1-1.8,6.21-3.35.77-.56,1.54-1.12,2.33-1.7.79-.59,1.59-1.18,2.4-1.79,1.57-1.15,3.14-2.3,4.71-3.45.75-.55,1.5-1.11,2.28-1.68,3.05-2.24,6.12-4.43,9.2-6.62-3.52,1.28-6.32,2.77-9.32,5-.78.58-1.56,1.15-2.37,1.74-.8.6-1.61,1.2-2.43,1.81-1.6,1.19-3.21,2.38-4.82,3.57q-1.06.79-2.14,1.6-1.91,1.28-4.91,2.28c.47-11.12,3.77-21.33,12.12-29.06,3.51-2.9,7.29-4.75,11.45-6.57q2.59-1.3,4.66-3.77c3.63-3.41,7.35-4.85,11.96-6.6.88-.34,1.76-.68,2.66-1.04,20.48-7.78,49.93-17.58,69.95-4.07Z"/>
  <path class="cls-37" d="M189.47,291.07c4.05,5.36,3.8,10.55,3,17-3.16,11.56-9.15,23.19-16.93,32.32q-1.42,1.91-1.07,5.68c1.05-.43,2.1-.87,3.19-1.31,9.85-3.65,19.32-5.2,29.81-4.69.33-1.65.66-3.3,1-5,.66.33,1.32.66,2,1-.14,1.6-.29,3.21-.44,4.81q-.12,1.34-.25,2.71-.32,2.48-1.32,5.48c.82-.3,1.64-.6,2.48-.91,1.08-.38,2.16-.76,3.27-1.15,1.07-.38,2.13-.77,3.23-1.16,3.07-.79,4.11-.75,7.02.22,1.64.12,3.29.22,4.94.31,4.47.41,6.91,1.33,10.06,4.69,1.43,2.87,1.39,4.83,1,8q-2.09,1.88-5.01,3.48c-1.06.6-2.12,1.2-3.22,1.82-1.14.62-2.28,1.24-3.46,1.89-18.42,10.46-32.5,22.01-41.31,41.81h2c.19-.78.37-1.57.56-2.38,5.53-13.94,17.46-24.23,29.44-32.62,0,3.47-.89,4.92-2.44,8-2.55,5.78-2.88,10.62-2.94,16.81q-.17,8.34-1.84,11.47-1.66,1.53-3.55,2.95c-3.09,2.45-5.37,5.37-7.79,8.46-.47.6-.95,1.2-1.43,1.82-4.19,5.46-7.26,11.17-10,17.49q-.4-.96-.81-1.94-1.07-2.39-4.19-3.06c-.5-1.96-.99-3.91-1.43-5.88-1.77-6.51-7.13-11.46-12.57-15.12-4.25-1.94-8.57-3.53-13-5-.25.87-.49,1.74-.75,2.64-5.32,14.25-20.28,28.53-33.61,35.61-.54.25-1.09.49-1.64.75q1.61.78,3.26,1.58c12.29,6.13,28.5,14.77,33.74,28.42-.94,4.85-4.38,7.61-7.94,10.75-.54.49-1.08.99-1.63,1.5-2.46,2.21-4.26,3.7-7.43,4.75-3.84-2.01-6.28-4.22-9-7.56-12.36-14.59-30.71-25.37-49.62-27.71q-2.56.03-4.2,2.27c-.39.66-.78,1.32-1.18,2,.82.11,1.64.22,2.49.33q18.26,2.59,25.51,7.67c-3.79,1.26-5.11.48-8.81-.88-17.53-6.36-34.44-1.66-51.19,4.88,1.03-3.02,1.77-3.88,4.65-5.38,1.08-.39,2.17-.78,3.29-1.18,1.17-.43,2.33-.85,3.54-1.29,3.12-1.02,6.21-1.83,9.4-2.59,9.16-2.41,13.39-8.76,18.12-16.56q-.96-1.7-1.94-3.44c-2.26-4.46-2.83-8.61-3.06-13.56-.72-.06-1.44-.12-2.19-.19-3.83-1.11-5.37-2.69-7.81-5.81q-.81-3.81-1-7c.66-.33,1.32-.66,2-1q1.13-2.34,2.12-5.06c.62-1.63,1.24-3.26,1.88-4.94,3.63-.33,7.26-.66,11-1v8c12.64-.56,23.55-10.34,32-19-3.49-3.6-7.11-6.83-11-10l2-2c.66.33,1.32.66,2,1v-3c-3.54,1.45-5.24,3.26-7.5,6.31-.61.81-1.22,1.61-1.85,2.45-1.21,1.64-2.4,3.28-3.59,4.93-5.03,5.64-10.91,9.86-18.5,10.69-4.34-.46-6.24-1.57-9.56-4.38-3.46-4.35-5.21-8.8-7-14,.48,1.63.96,3.25,1.44,4.88.27.9.53,1.81.81,2.74q.68,2.37,1.75,4.38c-3.9.31-6.52.21-10.12-1.38-5.35-4.89-7.76-9.83-8.36-17.08-.65-14.28,2.87-24.8,12.48-35.54.61-.7,1.21-1.4,1.84-2.12,6.34-6.85,14.56-12.61,24.14-13.2,3.68.58,5.5,2.68,8.02,5.32-.74.72-1.49,1.44-2.25,2.19-2.44,2.5-4.62,5.05-6.75,7.81.52-.48,1.04-.96,1.57-1.46,4.66-4.22,8.04-7.03,14.36-7.98,4.09.58,6.45,2.38,9.06,5.44,2.73,4.99,3.51,9.43,4,15q-4.46.5-9,1c-.99-1.65-1.98-3.3-3-5-3.94.23-6.38.53-9.56,2.94-5.41,6.8-9.05,13.73-11.44,22.06,1.63-5.87,3.45-11.73,8-16,6.3-2.58,13.44-2.38,20.15-2.75,9.68-.86,19.88-4.77,27.85-10.25q.86-.59,1.74-1.19c6.22-4.8,10.68-11.5,15.26-17.81.44-.6.88-1.2,1.33-1.82,6.55-9.05,12.26-18.4,17.52-28.26,3.98-7.26,7.24-11.56,16.15-8.92ZM168.08,352.38c-2.04,2.46-3.84,5.03-5.61,7.69-1.2,1.48-2.43,2.94-3.69,4.38-.54.62-1.08,1.24-1.63,1.88-4.5,4.68-9.77,8.09-15.68,10.75.26,3.83.71,7.38,2,11,1.93,1.61,3.56,2.33,5.93,3.12,2.76,1.17,4.2,2.55,6.07,4.88q.62,2.66,1,5.5.59,2.96,2,5.5c2.93,1.59,5.69,2.31,8.92,3.12,6.63,1.9,11.45,6.96,16.08,11.88q1.23-6.1-.5-11.88c-2.69-5.6-.94-11.68.12-17.62q.59-2.62-.62-5.5c-.86-9.77,2.86-17.42,9-24.89,4.16-4.38,9-7.77,14-11.11q.83-1.92,1.25-4.06c.17-.71.34-1.43.52-2.16.08-.59.15-1.17.23-1.78q-1.09-1.31-3.77-1.2c-11.23.19-27.48,2.2-35.63,10.51Z"/>
  <path class="cls-126" d="M260.47,147.07c16.57,12.13,23.88,29.55,27.6,49.17.52,3.67.46,7.13.4,10.83-.56-.27-1.11-.54-1.69-.81q-2.48-.45-4.69,1.5c-12.34,13.78-13.27,31.91-12.62,49.31,4.34-.48,6.23-1.64,9-5,5.04-8.13,7.69-16.81,10-26h1c.18.68.36,1.35.55,2.05.25.89.5,1.78.76,2.7.24.88.49,1.76.74,2.67,1.01,2.74,1.9,4.5,3.95,6.58,1.65.33,3.3.66,5,1v16c6.98-2.79,8.35-6.35,11.36-13.01,2.68-6.78,3.88-12.53,4.33-19.74.92-12.71,8.82-27.64,18.31-36.25h3c.91,23.71-2.98,44.77-16,65-.4.74-.8,1.47-1.22,2.23-1.45,2.25-2.46,3.39-4.78,4.77-3.33.69-6.52,1.16-9.91,1.38-3.66.24-6.16.65-9.61,2.12-5.31,2.05-10.5,1.95-16.13,1.93-1.1,0-2.2.01-3.34.02-2.32,0-4.64,0-6.96,0-3.54,0-7.07.02-10.6.05-2.26,0-4.52,0-6.79,0-1.05.01-2.1.02-3.18.03-11.55-.11-19.27-5.54-27.43-13.41-16.36-17.56-16.95-45.8-16.2-68.44.72-12.77,5.27-23.88,14.61-32.71,11.67-9.1,27.42-11.04,40.54-3.98Z"/>
  <path class="cls-127" d="M343.34,339.01q1.17.01,2.37.03c.58.01,1.16.02,1.76.04,1.56,4.36.51,6.89-1.35,10.87-.36.72-.72,1.44-1.09,2.19-.37.75-.73,1.51-1.11,2.28-3.28,6.61-7.11,12.69-11.45,18.65-.72,1-1.44,1.99-2.19,3.02-10.79,14.61-22.51,29.6-36.81,40.98-.93.75-1.86,1.51-2.81,2.29-22.94,18.34-55.5,37.12-85.9,36-4.95-.63-9.5-1.78-13.35-5.04-1.76-4.23-1.29-8.19.14-12.47,7.13-14.51,18.5-27.03,31.11-37.09,3.87-3.11,7.67-6.27,11.44-9.5,11.92-9.93,24.83-18.64,38.38-26.19.83-.46,1.66-.93,2.52-1.41q45.34-25,68.35-24.66Z"/>
  <path class="cls-126" d="M93.34,140.82c9.12,7.2,16.82,16.52,19.12,28.25.22,4.12.23,8.24.24,12.36,0,2,.04,4,.07,6q0,1.91.02,3.85c0,1.16.02,2.32.03,3.51-.92,8.47-6.88,13.42-12.98,18.68-5.48,3.85-11.97,2.95-18.38,2.6.47-.97.95-1.94,1.44-2.94,2.17-5.22,3.73-10.21,1.5-15.64-1.23-2.22-2.51-4.33-3.94-6.43,2.31.33,4.62.66,7,1-3.57-2.28-6.9-2.73-11-2q-8.09,2.47-14,8,.74-.51,1.5-1.02c4.45-2.92,8.3-4.79,13.5-5.98,3.21,2.8,5.62,5.38,6.61,9.6.31,6.14-.92,10.55-4.64,15.46-3.48,3.43-7.45,5.22-11.97,6.94-1.13.43-2.27.87-3.44,1.31-5.87,1.13-11.92,2.04-17.38-.75-.72-.85-1.44-1.69-2.19-2.56q-.82-.76-1.66-1.53c-4.4-4.89-4.62-9.28-4.39-15.6.26-4.3.6-8.58,1.05-12.86h-2c.01.68.02,1.36.04,2.05.06,6.39-.26,12.61-1.04,18.95-5.27-2.27-8.41-4.83-11-10-.06-5.95,1.51-10.79,4.16-16.05q1.04-2.05.84-4.95c-.98,2.27-1.96,4.54-2.94,6.81-.28.64-.56,1.29-.84,1.95-1.17,2.73-2.28,5.42-3.22,8.24-2.29-.92-3.73-1.65-5.25-3.62-1.1-3.49-1.32-6.78-.75-10.38q1.75-3.06,4-6c2.47-3.85,4.44-7.39,5-12h-2c-.06,1.01-.12,2.02-.19,3.06-.64,4.64-2.84,7.38-5.81,10.94h-2c-1.61-3.53-2.35-6.13-2-10q1.17-2.11,2.75-4.19c3.98-5.63,6.35-11.57,8.19-18.19,2.02-4.99,6.68-7.17,11.44-9.19,18.2-7.21,39.72-9.28,56.5,2.31Z"/>
  <path class="cls-100" d="M73.45,274.13c6.71,4.57,11.83,11.49,15.02,18.94.63,6.32-.36,10.75-4,16q-2.75,2.5-5,4c-3.58-3.34-5.9-5.74-6.12-10.75.04-.74.08-1.49.12-2.25h-2c3.11,10.8,7.7,16.75,16,24-2.22-2.81-4.4-5.53-7-8q1-3,3.38-5.31c2.68-2.75,4.08-5.2,5.62-8.69q9.95-.77,13.56,1.88c4.04,8.78,4.97,19.48,2.44,28.81-2.15,2.48-2.84,2.85-5.94,3.5q-2.13.13-4.06-.19-2.31-2.38-4-5c-6.2-2.07-9.97-1.28-15.81,1.44-12.46,6.63-22.13,17.36-27.19,30.56-1.21,4.63-2.16,9.29-3,14-13.41-3.9-25.44-15.67-32.62-27.32-2.46-4.79-4.07-9.26-3.38-14.68q1.81-2.88,4-5h3q1.82,2.19,3.69,5c.62.93,1.25,1.86,1.89,2.81q.71,1.08,1.43,2.19c0-2.77-1.21-3.89-2.81-6.12-5.34-7.94-7.69-15.15-6.19-24.88q2.25-3.25,5-5h4c.31.8.63,1.59.95,2.41q3.27,9.62,10.05,16.59c-.57-.9-1.13-1.81-1.71-2.74-.74-1.19-1.48-2.38-2.22-3.57-.37-.59-.75-1.19-1.13-1.8-3.28-5.28-4.86-9.64-3.93-15.88,2.69-7.63,6.31-12.6,13.56-16.31,2.59-.73,4.76-.84,7.44-.69-.16.62-.33,1.25-.5,1.89-.7,4.32-.61,8.56-.57,12.93,0,.88,0,1.77.01,2.68.01,2.17.03,4.34.05,6.51h2c-.16-.51-.31-1.02-.48-1.55-1.46-6.84-2.09-15.86,1.54-22.08,5.89-7.65,15.51-13.35,24.91-8.32Z"/>
  <path class="cls-123" d="M157.47,243.07c.07.67.15,1.33.23,2.02,1.21,8.48,3.85,16.74,10.65,22.36,3.74,4.63,2.66,9.93,2.12,15.62-.69,5.57-1.56,11.12-2.58,16.64-.29,1.62-.55,3.25-.78,4.88-1.02,6.44-3.21,10.65-7.15,15.8q-.8,1.08-1.62,2.18c-1.09,1.47-2.19,2.93-3.29,4.38-1.5,2.01-2.94,4.04-4.36,6.11-.85,1.19-1.69,2.39-2.54,3.58-.74,1.05-1.48,2.11-2.24,3.19q-2.45,2.25-5.91,2.69c-8.94-1.11-16.49-4.96-23.54-10.44-.74-.52-1.47-1.03-2.23-1.57-6.6-5.38-7.16-11.5-8.1-19.51-.65-3.8-1.35-5.9-3.67-8.93-.99-.66-1.98-1.32-3-2-2.64-11.47,3.7-25.93,9.42-35.61,7.7-11.64,19.08-18.76,32.58-22.14q11-.92,16,.75Z"/>
  <path class="cls-5" d="M192.53,223.01c9.48,5.34,16.63,13.19,22.35,22.32,6.01,9.49,14.78,17.14,25.59,20.75,1.49.09,2.98.12,4.47.11.9,0,1.8,0,2.73,0q1.45,0,2.94-.02c.99,0,1.99,0,3.01,0,3.18,0,6.36-.02,9.54-.03,2.15,0,4.31,0,6.46-.01,5.28-.01,10.57-.03,15.85-.05q0,3-2,6-.08,3.05,1,6c3.13,2.52,6.05,3.44,10,4-1.4,3.46-2.79,4.81-6.06,6.56-.71.39-1.43.79-2.16,1.19-7.16,3.21-14.27,4.89-22.03,5.93-.93.13-1.85.25-2.8.38-26.98,3.48-57.77-1.48-79.95-18.07-10-8.16-20.83-17.71-22.24-31.3-.22-7.26,1.2-12.04,5.85-17.65,7.73-8.19,16.85-10.94,27.45-6.12Z"/>
  <path class="cls-127" d="M80.47,459.07c21.84.48,39.91,14.73,54.66,29.7q5.34,5.85,5.34,8.3c-22.02,16.24-48.81,20.22-75.5,20.25q-1.08,0-2.18,0-46.5-.04-60.32-9.25c1.03-5.87,5.6-9.21,10.19-12.64,2.39-1.63,4.8-3.2,7.25-4.74.88-.56,1.75-1.12,2.65-1.7,20.65-13.08,43.28-26.2,68.6-20.55,4.47,1.11,8.91,2.29,13.31,3.62-9.42-3.98-17.8-6.21-28-7,1.32-1.98,2.64-3.96,4-6Z"/>
  <path class="cls-85" d="M120.47.07c61.51-1.63,120.2,23.68,165,66,1.31,1.13,2.62,2.26,3.94,3.38,11.04,9.66,20.41,20.5,29.06,32.31q.64.86,1.3,1.74c2.32,3.22,4.08,6.29,5.53,9.99q2.59,6.48,7.18,11.59c6.51,2.06,13.52,1.4,20.26,1.08,8.15-.23,16.52,1.06,23.74,4.92,1.53,1.53,1.18,2.94,1.21,5.07-.06,4.65-.96,8.47-2.59,12.8-.26.71-.52,1.42-.78,2.16-2.26,5.96-5.02,11.63-7.97,17.28-.42.81-.84,1.61-1.27,2.44-1.72,3.19-3.15,5.82-5.8,8.33-2.55,2.69-2.93,5.64-3.62,9.16-3.59,15.99-11.53,31.56-21.19,44.75-.99.33-1.98.66-3,1q.16-.8.33-1.62c.35-1.72.69-3.44,1.03-5.16.45-2.25.92-4.49,1.41-6.73,2.24-10.82,2.91-21.45,3.23-32.48-6.74,3.37-9.37,9.73-13,16-.59.88-1.17,1.76-1.78,2.67-4.07,6.42-4.83,11.96-5.4,19.34-.93,10.47-4.55,23.87-12.82,30.99q-2.12.75-4,1-1-1-1.13-3.58,0-1.6,0-3.23c0-1.06,0-2.12,0-3.21.11-2.52.4-4.58,1.13-6.98-.74.1-1.49.21-2.25.31q-2.75-.31-4.88-2.44c-1.87-2.87-3.37-5.8-4.88-8.88q-.42,1.43-.85,2.89c-2.53,8.3-5.28,16.5-11.15,23.11q-2.72,1.29-5,2c-2.79-2.4-2.98-2.88-3.5-6.82-.44-15.31,2.74-32.47,13.5-44.18q2.71-1.28,5-2l1,1c.33-2.64.66-5.28,1-8h2q.02.99.04,2-.15,18.98,4.96,37,3.62.33,6.76-1.27c5.3-6.25,8.98-13.23,12.68-20.48q12.88-25.09,19.56-30.25,2.75.25,5,1,.41,26.18-2,36c8.03-14.26,16.03-29.28,16.25-46,.03-1.2.05-2.39.08-3.62-.35-3.64-1.14-5.48-3.33-8.38-2.83-1.42-5.47-1.35-8.62-1.56-1.19-.08-2.38-.17-3.6-.25-.92-.06-1.83-.12-2.77-.18l1-2h3c-7.3-40.96-34.3-76.25-67-101-.66-.51-1.32-1.01-1.99-1.54-24.2-18.61-51.17-34.26-80.01-44.46-.79-.28-1.58-.56-2.39-.85-19.8-6.88-40.67-10.12-61.61-9.15.61.69,1.21,1.38,1.84,2.1,16,18.68,36.49,47.06,35.16,72.9-1.69-.14-3.38-.29-5.06-.44q-1.41-.12-2.85-.25c-2.11-.22-4.22-.49-6.32-.82-37.01-4.87-76.3,3.54-107.25,24.55-2.74,2.13-5.12,4.46-7.52,6.96q1.36.09,2.75.19c9.29,1.36,17.69,6.43,25.56,11.26,2.51,1.45,4.97,2.55,7.69,3.55.78-.64,1.57-1.28,2.38-1.94,3.61-2.83,5.24-3.18,9.75-3.12q1.37.01,2.76.03c.7.01,1.4.02,2.12.04v1c-.65.09-1.3.17-1.98.26-6.16.99-9.74,2.13-14.02,6.74q-1.4,2.65-2,5c2.31.33,4.62.66,7,1v1q-1.64.04-3.3.08c-15.06.5-35.33,1.56-46.7,12.92-.83,2.73-1.47,5.49-2.12,8.27-.9,2.78-2,4.52-3.88,6.73q-.62-1.75-1-4c.31-.62.62-1.23.94-1.87,1.13-2.27,1.38-4.01,1.69-6.51.8-3.76,1.85-5.55,4.88-7.94,11.52-7.46,25.87-10.55,39.5-9.69q.48-2.33,0-5-2.42-2.18-5.69-3.94c-.58-.34-1.17-.68-1.77-1.03-9.08-5.18-18.4-9.42-28.54-12.03.31-3.02.97-3.97,3.23-6.08,34.55-25.37,77.28-35.45,119.69-29.46,2.4.42,4.73.89,7.08,1.54-6.58-27.3-19.01-50.84-38.45-71.18q-1.55-1.82-1.55-3.82Z"/>
  <path class="cls-100" d="M139.47,378.07c3.7,8.14,2.05,17.35,1,26,1.3-4.33,2.34-8.51,3-13,4.85.42,6.88,2.37,10,6,2.52,4.33,2.86,8.09,2,13-7.51,17.71-24.12,31.5-41.44,38.81-6.67,2.69-12.66,4.77-19.79,2.47-5.18-2.41-7.94-5.43-11.02-10.22q-.75-2.06-.75-8.06c3.63,1.65,7.26,3.3,11,5v-2c-2.71-1.11-5.42-2.15-8.19-3.11-1.11-.4-2.22-.79-3.37-1.2-1.12-.39-2.23-.78-3.38-1.18-3.48-1.72-5.02-3.24-7.06-6.51-1.31-5.84.36-10.82,3-16,3.63-.33,7.26-.66,11-1v8c12.52-.56,23.78-10.22,31.94-19.06,4.08-4.9,5.89-9.68,7.06-15.94,1.75-.34,3.5-.67,5.25-1,.97-.19,1.95-.37,2.95-.56q2.8-.44,6.8-.44Z"/>
  <path class="cls-92" d="M132.47,163.07c3.35,3.77,5.06,7.24,6.69,12,.42,1.2.83,2.39,1.26,3.62,5.72,18.37.76,38.52-4.82,56.36q-1.12,2.02-2.81,2.65c-2.88.46-5.58.41-8.5.33-27.76-.55-52.53,3.52-77.27,16.76q-2.55,1.29-4.55,1.29,3.49-23.96,8-29c3.74-1.16,7.14-1.44,11.05-1.65,6.33-.56,13.37-2.76,17.95-7.35q2.29-.09,5.06.06c10.1.11,15.44-2.92,22.77-9.81,4.01-4.18,6.17-7.4,6.48-13.27.04-.76.08-1.51.13-2.29.04-.79.08-1.57.12-2.38q.06-1.2.13-2.42c.11-1.97.21-3.93.31-5.9l5.24-2.07c3.05-1.61,4.23-3.93,5.76-6.93q.19-1.55.38-3.12.62-2.88,3.69-5.25c.97-.54,1.94-1.07,2.94-1.62Z"/>
  <path class="cls-91" d="M189.47,291.07c4.05,5.36,3.8,10.55,3,17-5.63,20.59-19.69,37.89-33.67,53.51-1.17,1.31-2.33,2.64-3.48,3.97-8.51,9.27-20.98,12.91-33.31,13.68-6.47.21-12.94.12-19.42.03-1.96-.02-3.92-.03-5.88-.04-4.75-.03-9.5-.08-14.25-.15.9-3.37,1.9-6.69,3-10,.23-.71.47-1.43.71-2.17q.8-1.86,3.29-4.83c3.53-1.18,7.05-1.38,10.75-1.62,13.22-1.29,26.09-3.69,37.25-11.38q.86-.59,1.74-1.19c6.22-4.8,10.68-11.5,15.26-17.81.44-.6.88-1.2,1.33-1.82,6.55-9.05,12.26-18.4,17.52-28.26,3.98-7.26,7.24-11.56,16.15-8.92Z"/>
  <path class="cls-99" d="M88.47,331.07c2.28,1.48,4.02,3.11,6,5-.74.72-1.49,1.44-2.25,2.19-2.44,2.5-4.62,5.05-6.75,7.81.52-.48,1.04-.96,1.57-1.46,4.66-4.22,8.04-7.03,14.36-7.98,4.09.58,6.45,2.38,9.06,5.44,2.73,4.99,3.51,9.43,4,15-2.97.33-5.94.66-9,1l-3-5c-3.94.23-6.38.53-9.56,2.94-7.18,9.02-12.56,18.29-11.44,30.06l1,2c6.09.42,9.12.07,14-4,.66-.99,1.32-1.98,2-3q2.16-.29,4.62-.19c.82.03,1.63.05,2.48.08.63.03,1.25.07,1.9.11-3.47,10.39-13.09,19.29-22.56,24.38-4.79,1.23-8.18,1.27-12.62-1-5.41-4.57-7.57-9.86-9.81-16.38.48,1.63.96,3.25,1.44,4.88.27.9.53,1.81.81,2.74q.68,2.37,1.75,4.38c-3.9.31-6.52.21-10.12-1.38-5.35-4.89-7.76-9.83-8.36-17.08-.65-14.28,2.87-24.8,12.48-35.54.61-.7,1.21-1.4,1.84-2.12,6.49-7.02,16.17-14.05,26.16-12.88Z"/>
  <path class="cls-127" d="M157.47,409.07c10.19,1.58,17.36,6.13,24,14,3.56,5.53,5.15,12.21,4.89,18.77-1.26,4.59-3.7,8.03-6.39,11.92-.54.79-1.08,1.59-1.63,2.41-4.3,6.26-8.92,12.14-13.87,17.91-1.34,1.66-2.67,3.33-4,5-3.81-1.27-4.33-2.68-6.5-6-7.42-10.39-16.77-16.06-28.09-21.37q-3.41-1.63-6.41-3.63c.73-.38,1.45-.76,2.2-1.14,15.65-8.57,28.21-21.61,35.8-37.86Z"/>
  <path class="cls-100" d="M113.46,113.13c11.05,5.64,16.03,13.41,20.01,24.94,1.21,3.76,1.24,7.44,1.31,11.38q.06,1.93.11,3.9c-.5,4.35-1.63,6.4-4.43,9.73-1.32.66-2.64,1.32-4,2-.99-2.97-1.98-5.94-3-9l1,4q.96,11.34-1.81,15.62-2.19,2.38-5.19,4.38h-3c-.01-.72-.03-1.43-.04-2.17-.7-14.56-6.25-25.62-16.71-35.58-8.22-6.81-17.97-9.24-28.25-11.25.5-3.96,1.26-5.75,4.38-8.25.61-.5,1.21-1,1.84-1.52,4.47-3.08,9.59-2.76,14.79-2.23,4.44,1.12,8.66,2.52,13,4-4.29-1.65-8.58-3.3-13-5,6.46-6.81,13.99-8.13,22.99-4.94Z"/>
  <path class="cls-46" d="M132.47,130.07c14.33,9.96,26.51,23.67,30.31,41.12,1.89,13.32.45,25.89-1.62,39.06-.11.68-.21,1.35-.32,2.05-1.49,9.32-3.3,18.55-5.36,27.76l-9.38.68c-3.89.34-7.75.81-11.62,1.32.2-.67.4-1.35.61-2.04.93-3.11,1.85-6.22,2.76-9.33.32-1.06.63-2.12.96-3.21,5.98-20.3,8.07-41.72-2.15-61.1-.44-.73-.88-1.45-1.33-2.2-1.13-2.79-.56-4.21.14-7.11.53-9.47.22-17.96-3-27Z"/>
  <path class="cls-116" d="M39.47,281.07q-1,3-3.75,4.69c-4.78,3.4-7.41,7.78-9.25,13.31-.83,7.9,1.86,13.91,6.67,20.17q1.33,1.83,1.33,3.83c-4-1.33-4.54-3.08-6.62-6.69-.61-1.04-1.22-2.07-1.85-3.14-1.51-3.14-2.14-5.73-2.52-9.18q-4.81,1.53-8,5c-1,10.35.91,18.24,7.31,26.44.53.62,1.06,1.23,1.61,1.87.35.56.71,1.12,1.07,1.69-.33.99-.66,1.98-1,3q-6.52-7.11-8-12-3.63,1.87-6,5c-.6,9.43,3.89,16.88,9.63,24.04,7.11,7.54,16.2,13.26,25.37,17.96q.04-1.02.08-2.05c.91-14.85,8.16-25.97,18.78-36.16,6.96-5.79,14.89-10.61,24.14-9.79,3.08,1.37,4.58,2.29,6.31,5.19.23.6.45,1.2.69,1.81q1.92-.34,3.88-.69c.72-.13,1.44-.26,2.18-.39q2.16-.79,3.18-3.16c2.41-8.77.76-18.33-2.24-26.77-2.5-2.5-3.67-2.36-7.12-2.62-.91-.07-1.82-.15-2.76-.23-.7-.05-1.4-.1-2.12-.15v-1c1.75-.28,3.5-.52,5.25-.75.97-.14,1.95-.28,2.95-.42q2.8.17,5.05,1.8c2,2.72,2.7,4.84,3.43,8.12.25,1.06.5,2.13.75,3.22.46,2.49.64,4.7.68,7.21,1.54,6.73,6.82,10.84,12.47,14.49,2.11,1.18,4.22,2.29,6.4,3.32v3h2c-1.63,3.71-3.95,6.62-6.5,9.75-.79.98-1.59,1.97-2.41,2.98q-1.04,1.12-2.09,2.27h-2v-3h-2c-.33.66-.66,1.32-1,2-.1-.58-.2-1.16-.3-1.76-1-5.24-2.29-9-5.7-13.24-3.71-2.47-5.32-2.25-9.59-1.68-4.22,1.19-7.15,3.87-10.41,6.68-1.33,1.01-2.66,2.01-4,3,1.45-3.44,3.28-5.36,6.12-7.75.72-.61,1.45-1.23,2.2-1.86.55-.46,1.11-.92,1.68-1.39q-2.77-3.69-6.95-5.32c-10.43.64-18.82,7.22-25.75,14.53-9.68,11.75-12.37,22.74-11.54,37.56.67,6.01,3.2,10.44,7.68,14.35,2.99,1.02,5.43,1.09,8.56.88-.3-.6-.6-1.21-.91-1.83-.38-.8-.76-1.6-1.15-2.42-.38-.79-.77-1.58-1.16-2.39-.86-2.62-.71-3.81.22-6.36.31.81.63,1.62.95,2.45.43,1.07.86,2.14,1.3,3.24q.63,1.58,1.27,3.2c1.81,3.79,3.87,6.94,7.3,9.43,5.7,1.79,9.99.67,15.1-1.95,6.22-4.06,10.15-8.77,14.3-14.81,2.85-3.92,5.06-5.49,9.79-6.55q-.99,1.98-2,4h-3c.65.55,1.3,1.11,1.97,1.68.84.72,1.67,1.45,2.53,2.2.84.72,1.67,1.44,2.53,2.18q.97.96,1.97,1.95v2c.66.33,1.32.66,2,1-6.94,7.91-19.93,19.28-30.81,20.25q-2.19-.25-3.19-1.25-.24-5.53,1-8-.99.5-2,1c-1.54.22-3.08.41-4.62.56q-1.23.13-2.48.25c-.63.06-1.25.12-1.9.18-1.58,4.33-2.45,8.43-3,13-2.82-4.42-1.69-8.26-1-13.22q.24-2.75-1.18-4.62c-2.32-1.47-3.91-1.52-6.64-1.59-4.83-.39-7.57-1.11-11.19-4.56-4.05-6.12-5.65-11.72-6-19-.86-.08-1.72-.16-2.6-.24-11.75-2.62-24.02-14.84-30.4-24.76-4.23-6.69-6.68-13.01-5-21q2.5-2.94,5-5,.14-3.73-.5-6.25c-1.21-6.66-.98-11.83,2.5-17.75,3.26-2.11,5.12-3,9-3,.04-.97.08-1.94.12-2.94.82-5.71,4.25-10.71,8.5-14.52,2.62-1.85,4.14-2.54,7.38-2.54ZM108.47,328.07c-.33,1.65-.66,3.3-1,5,.99-.66,1.98-1.32,3-2-.33-.99-.66-1.98-1-3h-1Z"/>
  <path class="cls-111" d="M343.47,336.07v1c-1.19.2-2.38.39-3.6.59-36.59,6.43-70.46,24.95-99.75,47.31q-1.64,1.1-4.64,2.1c.43-10.06,3.07-20.12,10.44-27.43,4.4-3.91,8.84-6.52,14.18-8.95.82-.38,1.64-.76,2.48-1.15,23.21-10.55,55.55-24.69,80.9-13.48Z"/>
  <path class="cls-99" d="M227.91,346.76c1.11-.04,2.22-.07,3.37-.11,3.86.51,5.44,1.74,8.19,4.43,1.43,2.87,1.39,4.83,1,8q-2.09,1.88-5.01,3.48c-1.06.6-2.12,1.2-3.22,1.82-1.14.62-2.28,1.24-3.46,1.89-19.35,11-33.02,23.34-42.31,43.81h-2c-1.91-3.82-1.57-7.85-1-12,2.6-7.49,6.5-13.18,12.36-18.48q1.74-1.44,2.64-3.52c-4.82,3.96-8.83,7.59-12,13-.66-.33-1.32-.66-2-1-.7-10.6,1.3-16.04,8.12-24.06,9.51-10.13,21.24-16.94,35.31-17.25Z"/>
  <path class="cls-10" d="M337.22,185.32l2.25.75c.32,13.36.49,26.03-3,39-.66-.66-1.32-1.32-2-2q.21-2.77.81-6.38c1.48-9.5,1.82-19.03,2.19-28.62-6.74,3.37-9.37,9.73-13,16-.59.88-1.17,1.76-1.78,2.67-4.07,6.42-4.83,11.96-5.4,19.34-.93,10.47-4.55,23.87-12.82,30.99q-2.12.75-4,1-1-1-1.13-3.58c0-1.07,0-2.13,0-3.23,0-1.06,0-2.12,0-3.21.11-2.52.4-4.58,1.13-6.98q-1.11.15-2.25.31-2.75-.31-4.88-2.44c-1.87-2.87-3.37-5.8-4.88-8.88-.28.96-.56,1.91-.85,2.89-2.53,8.3-5.28,16.5-11.15,23.11q-2.72,1.29-5,2c-2.79-2.4-2.98-2.88-3.5-6.82-.44-15.31,2.74-32.47,13.5-44.18q2.71-1.28,5-2c.33.33.66.66,1,1,.33-2.64.66-5.28,1-8h2c.01.66.03,1.32.04,2q-.15,18.98,4.96,37,3.62.33,6.76-1.27c5.3-6.25,8.98-13.23,12.68-20.48q15.71-30.6,22.31-30Z"/>
  <path class="cls-99" d="M87.47,450.07c.53.22,1.07.43,1.62.66,7.99,2.99,14.57,3.43,22.63.53,7.31-2.18,13.14.56,19.75,3.81,3.58,2.08,6.79,4.39,10,7q1.17.93,2.37,1.88c5.63,4.7,9.7,9.95,13.63,16.12-1.58,4.02-4.26,6.33-7.44,9.19-.97.88-1.94,1.76-2.93,2.67q-2.63,2.14-5.63,3.14c-.59-.76-1.19-1.52-1.8-2.31-5.74-7.21-11.77-13.15-19.2-18.69-.82-.63-1.65-1.25-2.5-1.9-10.72-7.85-21.7-12.13-34.5-15.1,1.07-2.92,1.78-4.78,4-7Z"/>
  <path class="cls-11" d="M19.47,160.07c.33.99.66,1.98,1,3-.83,1.01-1.65,2.02-2.5,3.06-2.54,3.26-2.76,5.28-2.31,9.38.24,1.53.5,3.05.81,4.56h2c.27-.54.54-1.07.81-1.62.9-1.8,1.82-3.59,2.75-5.38,1.15-2.4,1.94-4.41,2.44-7h2c-.22,6.29-1.62,9.5-5.62,14.34-2.56,3.1-2.65,5.64-2.6,9.62.32,2.91,1.43,4.76,3.23,7.04.66.33,1.32.66,2,1q.15-1.29.31-2.6c.75-3.68,2.02-6.45,3.75-9.77.55-1.06,1.1-2.12,1.66-3.21.42-.8.84-1.59,1.28-2.41,1.12,2.8,1.03,3.91,0,6.8-.48,1.01-.95,2.03-1.44,3.07-2.01,4.28-3.01,7.37-2.56,12.12,2.55,4.81,4.16,6.1,9,9,.66-6.6,1.32-13.2,2-20h2q-.03.91-.06,1.83c-.08,2.76-.14,5.53-.19,8.29-.03.95-.07,1.9-.1,2.88-.08,5.92.4,9.28,4.35,13.99.56.89,1.11,1.77,1.69,2.69,3.27,3.27,6.91,4.16,11.31,5.31v1h-6c-2.42,6.92-4.28,13.88-6,21-.66,2.67-1.33,5.33-2,8,.54-.27,1.07-.54,1.63-.82,12.49-6.27,24.81-11.7,38.37-15.18.66-.18,1.33-.35,2.01-.53,16.47-4.17,34.14-2.74,50.99-2.47v8c-.93.44-1.86.87-2.82,1.32-16.22,7.74-24,17.48-30.18,34.68-2.2,6.51-2.57,13.18-3,20-.61,0-1.23,0-1.86,0-2.5.12-4.72.33-7.14.99q-1.94,2.72-3,6-3.47,4.74-6,6c1.36,2.99,2.95,5.29,5.12,7.75.54.61,1.08,1.23,1.63,1.86.41.46.82.92,1.24,1.39-7.41-3.16-13.62-10.07-16.62-17.44-.97-2.79-1.38-4.58-1.38-7.56h2c.18.61.36,1.23.55,1.86.25.81.5,1.62.76,2.45.24.8.49,1.6.74,2.43.99,2.36,2.03,3.6,3.95,5.26,4.89-4.49,7.57-8.11,8.56-14.75-.21-5.58-3.44-9.81-6.56-14.25-.42-.6-.84-1.21-1.27-1.83-2.89-3.81-6.2-6.64-10.73-8.17-6.36-.1-12.1,1.85-17,6-4.87,5.75-5.68,10.63-5.31,18q.03,1.31.07,2.64c.06,2.12.15,4.24.24,6.36h-2c-1.22-3.66-1.18-7.06-1.19-10.88-.01-.71-.02-1.42-.04-2.14-.01-4.11.39-7.28,2.22-10.98q-3.47.5-7,1,.5-1.49,1-3c1.18-.04,2.35-.08,3.56-.12,4.47-.54,6.53-2.37,9.73-5.38,4.55-4,9.7-5.09,15.58-4.84,7.23,1.16,13.63,8.89,17.75,14.58,3.13,5.13,3.92,8.78,3.38,14.76h6c.03-.7.05-1.41.08-2.13,1.02-17.77,7.1-32.46,19.92-44.87,3.73-3.21,7.64-5.85,11.94-8.25q3.12-1.41,4.06-3.75c-33.23-.77-61.44,4.6-91,20q-1-1-1.31-4.56c.06-7.96,2.33-16.9,5.51-24.17.94-2.66.93-3.7-.2-6.27q-1.51-1.87-3.38-3.56c-.61-.58-1.21-1.16-1.84-1.75-.59-.56-1.18-1.11-1.79-1.68q-.72-.77-1.46-1.55c-1.81-1.7-3.72-2.81-5.86-4.07-4.33-2.82-6.7-5.82-9.34-10.21-1.24-1.99-2.54-3.53-4.16-5.22-2.78-3.74-2.94-6.41-3.19-10.94q-.48-4.66-2-9c-.62-4.39-.8-6.71,1.56-10.53,1.75-2.23,3.54-4.38,5.44-6.47Z"/>
  <path class="cls-70" d="M332.47,128.07c14.36-.35,29.51-.49,43,5-.5,6.96-2.03,12.77-4.56,19.25q-.53,1.37-1.07,2.77-7.61,19.1-13.37,21.98c-.03-.58-.05-1.16-.08-1.76-.39-5.41-.99-9.22-4.92-13.24-3.27-1.35-6.55-2.25-10-3-.15-.81-.29-1.63-.45-2.46-1.94-9.9-5.03-19.1-8.55-28.54Z"/>
  <path class="cls-70" d="M234.47,326.07q1.73,1.38,3,3c.51,5.97-.5,11.23-2,17-.98-.03-1.96-.07-2.96-.11-6.82-.14-12.89-.23-19.3,2.45q-1.73.66-4.73.66c.33-4.29.66-8.58,1-13-.66,1.32-1.32,2.64-2,4-2.53.57-4.75.88-7.31,1.06-6.54.63-12.74,1.73-19.11,3.35q-2.57.59-5.57.59,7.87-16.27,13.79-19.55c2.78-.75,5.35-1.18,8.21-1.45,1.06-.17,2.13-.35,3.22-.53,10.45-1.31,24.2-2.58,33.78,2.53Z"/>
  <path class="cls-109" d="M190.91,220.43c2.92,1.45,5.76,2.97,8.56,4.64v3c-.74-.43-1.48-.87-2.24-1.31-6.97-3.83-12.77-6.31-20.76-4.69-6.83,2.7-11.68,8.1-15.38,14.31-2.12,9.13-.2,16.93,4.7,24.81,1.47,2.06,3.02,3.97,4.68,5.88.55.65,1.1,1.29,1.67,1.96,14.73,15.96,35.61,22.38,56.33,26.04l-1,2c-7.11-.39-13.35-1.39-20-4,.06,1.26.12,2.52.19,3.81.03,5.69-1.49,10.79-3.19,16.19.66.33,1.32.66,2,1h-5c.2-.75.41-1.5.62-2.27,1.73-6.58,2.94-12.93,3.38-19.73-1.22-.35-2.43-.7-3.69-1.06-10.87-3.65-20.3-9.98-29.31-16.94.02.61.05,1.22.07,1.84.18,8.52-.89,16.74-2.07,25.16.38-.69.75-1.37,1.14-2.08.51-.9,1.02-1.8,1.55-2.73q.75-1.34,1.51-2.71c2.02-2.78,3.72-4,6.8-5.48q3.5-.5,7,0c2.63,2.17,4.47,3.95,6,7,.07,1.71.08,3.42.06,5.12,0,.91-.02,1.82-.03,2.76-.01.7-.02,1.4-.04,2.12h-1c-.12-.6-.24-1.21-.37-1.83-.17-.8-.34-1.6-.51-2.42-.16-.79-.32-1.58-.49-2.39-.64-2.39-1.29-4.28-2.63-6.36-3.76-1.06-5.98-1.48-9.56.21-2.68,1.96-3.69,3.42-5.17,6.37-.47.91-.94,1.81-1.42,2.75-.49.97-.98,1.93-1.48,2.93-4.7,8.94-9.76,17.08-16.01,25-1.42,1.82-2.81,3.67-4.18,5.53-11.47,15.3-25.18,23.18-44.18,26.22-5.98.64-11.99.86-18,1-.28.71-.56,1.41-.84,2.14-1.17,2.89-2.39,5.76-3.66,8.61-.42.96-.85,1.93-1.28,2.92q-1.22,2.33-3.22,3.33c.55-4.83,1.97-8.32,4.31-12.56.59-1.09,1.19-2.19,1.8-3.32,2.94-4.86,5.64-8.69,10.89-11.12,3.01-.43,4.33-.48,6.81,1.31q1.19,1.69,1.19,4.69c2.97-.33,5.94-.66,9-1v-4h2v3h2q.35-.81.71-1.64c1.65-3.02,3.72-5.47,5.91-8.11q1.23-1.48,2.48-2.98c.63-.75,1.25-1.5,1.9-2.27h-2v-2c5.28.99,10.56,1.98,16,3l2-4c.91-1.29,1.86-2.55,2.83-3.79.55-.71,1.1-1.41,1.67-2.14.58-.74,1.16-1.49,1.76-2.25,1.18-1.55,2.36-3.1,3.54-4.65,1.71-2.24,3.43-4.43,5.26-6.58,7.38-9.27,7.85-24.15,8.95-35.59q.17-1.7.34-3.44.4-6.22-1.77-11.89c-1.21-1.32-2.47-2.59-3.76-3.83-4.69-4.74-6.77-11.04-6.88-17.59.02-1.07.04-2.15.06-3.25q-1.49-.5-3-1c.99-.66,1.98-1.32,3-2,.41-1.2.83-2.39,1.25-3.62,2.47-7.06,7.98-12.86,14.46-16.52,6.02-2.26,11.8-1.83,17.72.5ZM127.47,347.51c-1.03,1.5-2.04,3.02-3,4.56q.99.49,2,1,2.65-1.11,5.5-2.75,1.47-.8,2.97-1.61,2.76-1.55,4.53-4.64c-6.05-1.81-8.06-1.71-12,3.44Z"/>
  <path class="cls-21" d="M219.47,373.07c0,3.47-.89,4.92-2.44,8-2.55,5.78-2.88,10.62-2.94,16.81q-.17,8.34-1.84,11.47-1.66,1.53-3.55,2.95c-3.09,2.45-5.37,5.37-7.79,8.46-.47.6-.95,1.2-1.43,1.82-4.19,5.46-7.26,11.17-10,17.49-4.14-4.14-4.1-11.89-4.31-17.56.46-15.29,10.43-28.67,20.9-38.99,4.24-3.89,8.48-7.47,13.41-10.45Z"/>
  <path class="cls-40" d="M154.47,410.07c.99.33,1.98.66,3,1-9.28,15.42-20.02,28.33-36,37,1.08.52,2.15,1.04,3.26,1.58,13.96,6.96,25.57,14.73,33.74,28.42q-1.48.5-3,1-.77-1.24-1.56-2.5c-8.13-12.04-19.93-20.97-34-25-4.29-.83-7.13.2-11.12,1.75-7.36,2.38-14.37.57-21.32-2.25l-4,6c1.18.04,2.35.08,3.56.12,18.91,2.2,37.44,16.4,49.65,30.42,1.33,1.77,2.57,3.6,3.79,5.46-3.78-.55-5.05-1.92-7.38-4.88-12.73-14.82-30.81-25.99-50.24-28.4q-2.56.03-4.2,2.27c-.39.66-.78,1.32-1.18,2,.82.11,1.64.22,2.49.33q18.26,2.59,25.51,7.67c-3.79,1.26-5.11.48-8.81-.88-17.53-6.36-34.44-1.66-51.19,4.88,1.03-3.02,1.77-3.88,4.65-5.38q1.63-.59,3.29-1.18t3.54-1.29c3.12-1.02,6.21-1.83,9.4-2.59,9.16-2.41,13.39-8.76,18.12-16.56-.64-1.13-1.28-2.27-1.94-3.44-2.26-4.46-2.83-8.61-3.06-13.56-.72-.06-1.44-.12-2.19-.19-3.83-1.11-5.37-2.69-7.81-5.81q-.81-3.81-1-7c.66-.33,1.32-.66,2-1,.62,1.99,1.24,3.97,1.86,5.96,2.47,4.41,7.78,5.81,12.27,7.61,3.26,1.3,5.95,2.49,8.88,4.44v2c-3.49-1.11-6.77-2.26-10-4,.44,5.44,1.4,8.85,5,13,4.43,3.24,8.97,4.72,14.45,4.45,17.51-3.11,32.76-14.83,43.55-28.45,2.9-4.19,5.72-8.44,8-13Z"/>
  <path class="cls-101" d="M103.47,302.07c2.78,3.49,3.38,6.64,3.87,11.03.9,7.89,2.34,12.91,8.63,18.23,3.69,2.57,7.43,4.83,11.5,6.74v3h2c-1.63,3.71-3.95,6.62-6.5,9.75-.79.98-1.59,1.97-2.41,2.98-.69.75-1.38,1.5-2.09,2.27h-2v-3h-2q-.49.99-1,2c-.1-.58-.2-1.16-.3-1.76-1-5.24-2.29-9-5.7-13.24-3.71-2.47-5.32-2.25-9.59-1.68-4.22,1.19-7.15,3.87-10.41,6.68-1.33,1.01-2.66,2.01-4,3,1.45-3.44,3.28-5.36,6.12-7.75.72-.61,1.45-1.23,2.2-1.86q.83-.69,1.68-1.39-2.77-3.69-6.95-5.32c-10.43.64-18.82,7.22-25.75,14.53-7.1,8.62-11.4,17.48-11.92,28.66-.04.69-.08,1.38-.12,2.09-.09,1.68-.18,3.36-.26,5.04h-1c-1.64-14.34-.13-22.62,8.87-34.39,6.94-8.48,14.68-14.91,25.13-18.61,4.98-.44,8.04-.16,12,3q1.31,2.19,2,4c1.28-.23,2.56-.45,3.88-.69.72-.13,1.44-.26,2.18-.39q2.16-.79,3.18-3.16c2.41-8.77.76-18.33-2.24-26.77-2.5-2.5-3.67-2.36-7.12-2.62-.91-.07-1.82-.15-2.76-.23-.7-.05-1.4-.1-2.12-.15v-1c1.41-.22,2.83-.43,4.25-.62.79-.12,1.58-.23,2.39-.35,2.82-.03,4.06.35,6.36,1.98ZM108.47,328.07l-1,5c.99-.66,1.98-1.32,3-2l-1-3h-1Z"/>
  <path class="cls-16" d="M223.47,69.07c11.69,5.75,18.12,14.24,25,25v1c-1,.16-2.01.32-3.04.48-9.15,1.53-17.38,3.86-25.96,7.52-1.67.67-3.33,1.34-5,2,1.46-12.5,3.83-24.46,9-36Z"/>
  <path class="cls-9" d="M337.22,185.32l2.25.75c.32,13.36.49,26.03-3,39-.66-.66-1.32-1.32-2-2q.21-2.77.81-6.38c1.48-9.5,1.82-19.03,2.19-28.62-6.74,3.37-9.37,9.73-13,16-.59.88-1.17,1.76-1.78,2.67-4.07,6.42-4.83,11.96-5.4,19.34-.93,10.47-4.55,23.87-12.82,30.99q-2.12.75-4,1-1-1-1.13-3.58c0-1.07,0-2.13,0-3.23q0-1.59,0-3.21c.11-2.52.4-4.58,1.13-6.98q-1.11.15-2.25.31-2.75-.31-4.94-2.5c-3.08-4.78-4.08-8.1-3.81-13.81h2l4,12q4.69.49,6.76-1.27c5.3-6.25,8.98-13.23,12.68-20.48q15.71-30.6,22.31-30Z"/>
  <path class="cls-23" d="M172.47,274.07c3.03,1.47,5.78,3.15,8.57,5.02,7.79,5.21,15.85,9.24,24.43,12.98.64,8.08-.95,14.54-4,22-.35.89-.7,1.78-1.06,2.69q-2.66,5.76-6.26,7.3c-2.24.51-4.39.85-6.68,1,.43-.99.87-1.99,1.31-3.01,3.76-9.02,6.36-17.08,4.69-26.99q-1.78-3.71-5-6c-5.09-.38-7.9-.05-12,3q-1.87,2.68-3.31,5.69c-.51.99-1.02,1.99-1.55,3.01-.38.76-.75,1.52-1.14,2.3-1.14-3.48-.9-6.25-.44-9.86.14-1.12.28-2.23.42-3.38.15-1.16.3-2.32.46-3.51.15-1.17.3-2.35.45-3.56.37-2.9.74-5.8,1.12-8.69Z"/>
  <path class="cls-119" d="M207.47,293.07c4.3.72,8.59,1.48,12.88,2.25q1.83.31,3.71.62c1.17.21,2.33.43,3.54.64q1.62.28,3.27.57,2.61.91,3.94,2.85c2.03,6.26,1.78,12.56,1.67,19.07-.97-.35-1.94-.7-2.94-1.06-9.78-3.37-18.73-4.79-29.06-4.94.13-.69.27-1.38.4-2.09.18-.94.35-1.88.54-2.85.17-.92.35-1.83.53-2.78.66-4.08,1.11-8.17,1.54-12.29Z"/>
  <path class="cls-53" d="M112.47,382.07l-2,3h-3c.65.55,1.3,1.11,1.97,1.68.84.72,1.67,1.45,2.53,2.2.84.72,1.67,1.44,2.53,2.18.65.64,1.3,1.28,1.97,1.95v2c.66.33,1.32.66,2,1-6.94,7.91-19.93,19.28-30.81,20.25q-2.19-.25-3.19-1.25c-.14-3.76.12-7.34,1-11q2.75-2.44,6-4c4.86-3.43,7.91-7.64,11.34-12.4q5.63-7.62,9.66-5.6Z"/>
  <path class="cls-67" d="M240.47,361.07c0,3.47-.91,5.18-2.38,8.31-2.11,4.76-2.84,8.51-3.06,13.69-.72,6.73-3.41,9.57-8.44,13.69-2.33,1.84-4.71,3.59-7.12,5.31-1.33,1-2.67,2-4,3-.58-12.82.13-23.48,8.65-33.85,4.78-4.38,10.6-7.23,16.35-10.15Z"/>
  <path class="cls-69" d="M83.3,377.99q1.2.03,2.42.06t2.73.06c.98.03,1.96.05,2.97.08,1,.02,1.99.05,3.02.07,3.2.08,6.4.16,9.6.24,2.16.05,4.33.11,6.49.16,5.32.13,10.63.26,15.95.4-.66.33-1.32.66-2,1-.2,1.93-.4,3.86-.58,5.79-.68,3.59-2.45,6.16-4.42,9.21q-3,0-5.38-2.19c-.87-.93-1.73-1.86-2.62-2.81-.93-.93-1.86-1.86-2.81-2.81q-1.08-1.08-2.19-2.19l2-1,2,1v-3l-3,1v-2h-9c-.66,1.32-1.32,2.64-2,4-3.33,2.86-5.9,4.27-10.25,4.44-1.24-.14-2.47-.29-3.75-.44-2.44-3.66-2.24-5.69-2-10q1-1,2.83-1.08Z"/>
  <path class="cls-94" d="M145.47,338.07h2c-2.39,7.06-7.62,11.02-13.92,14.71-14.27,7.01-28.4,8.93-44.08,9.29-.28.71-.56,1.41-.84,2.14-1.17,2.89-2.39,5.76-3.66,8.61-.42.96-.85,1.93-1.28,2.92q-1.22,2.33-3.22,3.33c.55-4.83,1.97-8.32,4.31-12.56.59-1.09,1.19-2.19,1.8-3.32,2.94-4.86,5.64-8.69,10.89-11.12,3.01-.43,4.33-.48,6.81,1.31q1.19,1.69,1.19,4.69c2.97-.33,5.94-.66,9-1v-4h2v3h2c.23-.54.47-1.08.71-1.64,1.65-3.02,3.72-5.47,5.91-8.11.82-.98,1.63-1.97,2.48-2.98.63-.75,1.25-1.5,1.9-2.27h-2v-2c5.28.99,10.56,1.98,16,3l2-4ZM127.47,347.51c-1.03,1.5-2.04,3.02-3,4.56l2,1q2.65-1.11,5.5-2.75,1.47-.8,2.97-1.61,2.76-1.55,4.53-4.64c-6.05-1.81-8.06-1.71-12,3.44Z"/>
  <path class="cls-76" d="M223.47,52.07c9.17,4.8,16.61,11.88,24,19,.87.79,1.73,1.58,2.62,2.4,7.13,6.7,12.21,14.36,17.38,22.6l-2,2c-.45-.73-.9-1.45-1.36-2.2-5.18-8.1-10.98-14.9-17.64-21.8-.66-.72-1.31-1.44-1.99-2.18-6.43-6.85-15.27-14.2-24.01-17.82-3.86-.1-5.03,1.03-7.88,3.69-13.6,17.32-14.8,38.15-15.12,59.31h-3c-.94-20.81,1.89-43.11,15-60,4.57-4.69,7.49-6.56,14-5Z"/>
  <path class="cls-79" d="M87.91,191.07c1.2.65,2.39,1.32,3.56,2-.66.33-1.32.66-2,1-1.68-.64-3.34-1.31-5-2h-3q.56.71,1.13,1.43c2.69,3.76,4.31,6.48,3.87,11.19-.68,3.83-2.02,7.01-4,10.38,7.52.69,12.86.55,18.96-4.16,5.6-5.05,9.62-9.29,11.04-16.84h2c-.13,7.52-2.68,10.86-8,16-.56.57-1.12,1.14-1.7,1.73-4.88,4.61-10.23,7.27-17.04,7.27-.93-.04-1.86-.08-2.82-.12-5.02-.16-7.41.94-11.41,3.81-6.7,4.36-13.37,4.67-21.02,3.32v-1c.73-.09,1.45-.17,2.2-.26,9.33-1.3,19.52-2.96,25.55-10.86,2.88-5.11,3.48-10.15,2.25-15.88-1.43-2.55-2.82-3.98-5-6-5.65,1.66-10.26,3.48-15,7l-2-1c7.58-7.18,17.41-11.92,27.44-7Z"/>
  <path class="cls-33" d="M154.47,410.07c.99.33,1.98.66,3,1-9.28,15.42-20.02,28.33-36,37,1.08.52,2.15,1.04,3.26,1.58,13.96,6.96,25.57,14.73,33.74,28.42-.99.33-1.98.66-3,1q-.77-1.24-1.56-2.5c-8.13-12.04-19.93-20.97-34-25-4.27-.82-7.12.17-11.09,1.76-4.06,1.27-8.15.98-12.35.74v-1h9v-2c.83-.3,1.67-.61,2.53-.92,20.47-7.62,36.52-20.18,46.47-40.08Z"/>
  <path class="cls-117" d="M206.47,213.07h1c.16,1.08.32,2.15.48,3.26,2.63,16.86,7.25,31.24,21.52,41.74,5.1,3.48,9.16,6.15,15.5,6.08q1.36,0,2.75-.02c.98-.01,1.96-.02,2.96-.03,2.07-.01,4.14-.03,6.21-.04,3.26-.02,6.53-.05,9.79-.09,3.15-.03,6.29-.05,9.44-.06.98-.01,1.95-.03,2.96-.04.91,0,1.82,0,2.76-.01q1.2-.01,2.42-.02c2.46.26,4.08,1.01,6.21,2.23-7.73,1.99-16.13,1.3-24.05,1.35-2.08.02-4.16.04-6.24.08-3.02.06-6.04.08-9.06.09-.92.02-1.83.05-2.78.07-11.21-.04-19.9-6.12-27.87-13.59-3.34-3.77-6.2-7.77-8.94-12q-5.08-7.52-12.06-13v-2c3.43,1.2,5.53,2.36,8,5-.16-.95-.31-1.91-.47-2.89q-.29-1.88-.59-3.8c-.2-1.24-.39-2.48-.6-3.76-.31-3.21-.18-5.47.66-8.55Z"/>
  <path class="cls-17" d="M222.47,67.07c12.83,2.96,21.1,15.24,27.71,25.68q1.29,2.32,1.29,4.32c-1.17.17-2.34.34-3.55.52-11.58,1.75-22.08,3.76-31.89,10.53q-1.56.95-3.56.95c-.31-7.19.49-13.54,2.25-20.5.2-.87.41-1.75.62-2.64q3.79-15.52,7.13-18.86ZM223.47,69.07c-4.88,10.97-9,23.87-9,36,2.6-1.03,5.19-2.08,7.77-3.18,8.63-3.55,17.07-5.37,26.23-6.82-5.06-11.08-13.66-21.18-25-26Z"/>
  <path class="cls-124" d="M45.47,234.07h2c-.64,3.29-1.29,6.58-1.94,9.88-.18.94-.36,1.87-.55,2.84-.18.9-.35,1.79-.54,2.71-.16.83-.32,1.65-.49,2.51q-.48,2.06-1.48,4.06c.54-.27,1.07-.54,1.63-.82,19.78-9.92,40.81-18.71,63.37-18.18-.33.99-.66,1.98-1,3-1.28.15-2.57.29-3.89.45-21.95,2.7-41.53,9.36-61.11,19.55q-1-1-1.25-4.69c.06-6.54.49-16.55,5.25-21.31Z"/>
  <path class="cls-23" d="M106.47,386.07c3.94,1.67,6.79,4.23,10,7-1.54,3.76-3.83,5.98-6.81,8.69-.85.79-1.7,1.58-2.58,2.39-2.71,2.01-4.25,2.82-7.61,2.93-2.41-1.33-3.98-3.08-6-5l2-3h2c.27-.59.53-1.17.81-1.77,1.21-2.26,2.55-3.95,4.25-5.85,1.6-1.79,2.86-3.22,3.94-5.38Z"/>
  <path class="cls-119" d="M112.47,332.07c4.06,1.95,7.83,4.3,11.66,6.66q2.37,1.46,5.34,2.34c-1.63,3.71-3.95,6.62-6.5,9.75-.79.98-1.59,1.97-2.41,2.98-.69.75-1.38,1.5-2.09,2.27h-2c-.24-.88-.48-1.76-.73-2.67q-.5-1.74-1.02-3.52c-.32-1.15-.65-2.3-.98-3.48-1.3-3.42-2.84-5.63-5.27-8.33,1.15-2.47,2.05-4.05,4-6Z"/>
  <path class="cls-14" d="M91.28,330.32c2.25,1.8,3.18,3.09,4.19,5.75,1.65-.33,3.3-.66,5-1v2q-.96.44-1.94.88c-5.82,2.76-10.35,5.72-15.06,10.12,1.45-3.44,3.28-5.36,6.12-7.75.72-.61,1.45-1.23,2.2-1.86.55-.46,1.11-.92,1.68-1.39q-2.77-3.69-6.95-5.32c-10.43.64-18.82,7.22-25.75,14.53-7.1,8.62-11.4,17.48-11.92,28.66q-.06,1.03-.12,2.09c-.09,1.68-.18,3.36-.26,5.04h-1c-1.64-14.34-.13-22.62,8.87-34.39,7.7-9.41,21.65-23.26,34.95-17.36Z"/>
  <path class="cls-19" d="M341.47,337.07c-2.68,3.59-6.23,3.89-10.38,4.69-22.96,4.98-45.84,15.78-65.68,28.2q-1.94,1.11-3.94,1.11v-2q55.48-32.71,80-32Z"/>
  <path class="cls-86" d="M102.47,352.07q1.81,1.31,3,3v3c2.64-.33,5.28-.66,8-1-.33.99-.66,1.98-1,3q-15.74,2.3-23,2c-.28.71-.56,1.41-.84,2.14-1.17,2.89-2.39,5.76-3.66,8.61-.42.96-.85,1.93-1.28,2.92q-1.22,2.33-3.22,3.33c.55-4.83,1.97-8.32,4.31-12.56.59-1.09,1.19-2.19,1.8-3.32,3.7-6.12,7.91-12.38,15.89-11.12Z"/>
  <path class="cls-1" d="M175.47,275.07c4.03.54,6.26,1.69,9.44,4.19,12.55,9.09,28.4,13.5,43.56,15.81-.33.66-.66,1.32-1,2-7.11-.39-13.35-1.39-20-4,.06,1.26.12,2.52.19,3.81.03,5.69-1.49,10.79-3.19,16.19.66.33,1.32.66,2,1h-5c.2-.75.41-1.5.62-2.27,1.73-6.58,2.94-12.93,3.38-19.73q-1.83-.53-3.69-1.06c-9.42-3.15-18.9-8.26-26.31-14.94v-1Z"/>
  <path class="cls-68" d="M162.47,194.07c5.05,8.12.47,21.4-1.54,30.16-1.07,4.69-1.76,9.19-2.02,14q-.44,1.84-3.44,3.84-2.18.41-4.67.63c-.89.08-1.79.17-2.71.25-.93.08-1.86.16-2.81.24-.94.09-1.88.17-2.85.26-2.32.21-4.64.42-6.96.61l-1-2c7.05-2.21,13.65-2.2,21-2,.11-1.18.23-2.37.34-3.59.75-6.71,1.98-13.33,3.16-19.97q1.99-11.18,3.5-22.44Z"/>
  <path class="cls-82" d="M334.47,185.07q2.63.41,5,1c.32,13.36.49,26.03-3,39-.66-.66-1.32-1.32-2-2q.21-2.77.81-6.38c1.48-9.5,1.82-19.03,2.19-28.62-4.61,2.25-6.73,5.21-9.19,9.56q-3.63,6.25-5.81,8.44l-1-3c1.31-2.44,2.65-4.65,4.19-6.94.4-.62.8-1.24,1.21-1.88q4.54-6.9,7.6-9.18Z"/>
  <path class="cls-43" d="M266.47,133.07c2.84,2.18,5.46,4.48,8,7-3.71,0-4.54-.96-7.44-3.19-9.83-7.08-20.38-10.7-32.56-9.81-7.39,1.29-14.2,3.64-19.12,9.55-1.71,2.44-3.33,4.9-4.88,7.45-.33-.99-.66-1.98-1-3,4.7-8.26,11.58-13.82,20.62-16.5,12.71-2.7,25.58,1.92,36.38,8.5Z"/>
  <path class="cls-74" d="M190.91,220.43c2.92,1.45,5.76,2.97,8.56,4.64v3c-.74-.43-1.48-.87-2.24-1.31-6.97-3.83-12.77-6.31-20.76-4.69-6.61,2.61-12.04,7.95-15.12,14.32-1,3.04-1.29,5.79-1.5,8.99-.07,1.07-.15,2.14-.23,3.24-.05.81-.1,1.62-.15,2.45l-2-1v-7c-.99-.33-1.98-.66-3-1,.99-.66,1.98-1.32,3-2,.41-1.2.83-2.39,1.25-3.62,2.47-7.06,7.98-12.86,14.46-16.52,6.02-2.26,11.8-1.83,17.72.5Z"/>
  <path class="cls-65" d="M331.47,129.07h2c1.15,3.08,2.29,6.17,3.44,9.25.33.87.65,1.75.99,2.64.31.84.63,1.69.95,2.56.29.78.58,1.55.87,2.35,1.56,4.55,1.85,8.36,1.76,13.2,1.22.08,2.43.17,3.69.25,4.13.52,6.36,1.71,9.31,4.75,2.09,3.27,2.13,5.44,1.62,9.25q-.17,1.34-.34,2.7-.14,1.01-.29,2.05h-1c-.1-.83-.2-1.66-.3-2.52-.15-1.09-.3-2.17-.45-3.29-.14-1.08-.28-2.16-.42-3.27q-.6-2.94-2.48-4.76c-3.08-1.52-5.67-1.67-9.09-1.84-1.17-.07-2.34-.13-3.55-.2-.89-.04-1.78-.07-2.7-.11l1-2h3c-1.64-8.79-3.81-16.8-7.01-25.14q-.99-2.86-.99-5.86Z"/>
  <path class="cls-22" d="M93.28,458.51c12.42,3.2,22.51,10.5,32.19,18.56.86.71,1.72,1.41,2.6,2.14,4.88,4.15,8.8,8.56,12.4,13.86-3.78-.55-5.05-1.92-7.38-4.88-11.57-13.47-28.93-25.27-46.62-28.12q3-2,6.81-1.56Z"/>
  <path class="cls-120" d="M76.47,132.07c11.17.4,20.73,8.23,28,16,4.5,5.86,8.82,12.57,10,20q-.44,2.25-1,4v-3h-2c-.28-.83-.56-1.67-.85-2.53-4.7-13.18-11.76-22.14-24.21-28.79-3.87-1.81-7.77-2.79-11.94-3.69l2-2Z"/>
  <path class="cls-48" d="M236.47,370.07c.99.33,1.98.66,3,1-1.32,5.28-2.64,10.56-4,16q1.84-1.34,3.73-2.7c1.63-1.18,3.27-2.36,4.9-3.55.81-.59,1.62-1.17,2.45-1.78,1.58-1.14,3.17-2.28,4.75-3.42,1.34-.96,2.67-1.92,3.99-2.9q1.58-1.13,4.18-2.65c.99.33,1.98.66,3,1-3.82,3.11-7.74,6.02-11.75,8.88q-.92.65-1.85,1.32c-4.74,3.36-9.53,6.63-14.4,9.8-1.59-1.59-1.21-3.23-1.25-5.44.03-5.56,1.39-10.36,3.25-15.56Z"/>
  <path class="cls-73" d="M315.47,265.07q-.28,1.89-1,4c-5.78,2.89-10.61,3.4-17,3q.32-1.89,1-4c5.6-3.34,10.59-3.35,17-3Z"/>
  <path class="cls-114" d="M186.97,243.89c.98-.01,1.96-.03,2.97-.04q2.53.23,4.53,2.23c-2.64.33-5.28.66-8,1q.91.69,1.84,1.4c6.55,5.1,12.41,10.63,18.16,16.6l-1,2c-.58-.62-1.17-1.23-1.77-1.87-4.63-4.79-9.34-9.25-14.61-13.32-.98-.76-1.95-1.51-2.96-2.29q-2.48-1.73-4.94-1.42-2.01.83-2.98,3.46c-.25.8-.49,1.61-.75,2.44q-.69-1.69-1-4c2.69-5.51,4.56-6.15,10.5-6.19Z"/>
  <path class="cls-90" d="M156.47,155.07q3,1,4.35,3.7c.42,1.13.84,2.26,1.27,3.43.43,1.12.85,2.23,1.29,3.38,2.09,6.71,2.27,13.28,2.27,20.24.01.85.02,1.7.04,2.57q0,1.22,0,2.47c0,.74,0,1.47.01,2.23q-.24,1.97-2.24,4.97c-.01-.56-.03-1.13-.04-1.71q-.51-20.28-6.96-39.29v-2Z"/>
  <path class="cls-98" d="M87.91,191.07c1.2.65,2.39,1.32,3.56,2q-.99.49-2,1c-1.68-.64-3.34-1.31-5-2h-3q.56.8,1.13,1.61c.47.71.95,1.41,1.43,2.14.48.7.95,1.39,1.44,2.11q1,2.14.65,4.41c-.22.57-.43,1.14-.65,1.73h-2c-.23-1.05-.45-2.1-.69-3.19-1.11-3.97-3.2-6.11-6.31-8.81-1.59.6-3.17,1.2-4.75,1.81-.88.34-1.76.67-2.67,1.02-2.51,1.14-4.45,2.43-6.58,4.17l-2-1c7.58-7.18,17.41-11.92,27.44-7Z"/>
  <path class="cls-30" d="M283.47,211.07h2c-.37,6.74-2.19,12.36-6,18-.99.33-1.98.66-3,1,.34-7.24,1.72-13.72,7-19Z"/>
  <path class="cls-36" d="M106.47,109.07l2,2c-.89.18-1.78.36-2.7.55q-1.76.38-3.55.76c-1.16.24-2.32.49-3.52.74-3.09.91-4.85,1.84-7.23,3.95.85.34,1.71.68,2.59,1.02,1.1.45,2.21.89,3.35,1.35,1.1.44,2.2.88,3.34,1.34q2.72,1.29,3.72,3.29-10.19-2.72-14.25-4.12c-3.23-1.03-6.39-1.47-9.75-1.88v-1c.58-.01,1.16-.03,1.76-.04,6.23-.38,8.72-1.74,13.24-5.96,3.74-1.97,6.78-2.37,11-2Z"/>
  <path class="cls-3" d="M127.47,452.07c13.25,3.14,23.94,15.04,31,26l-3,1c-.52-.83-1.03-1.65-1.56-2.5-6.9-10.22-15.69-16.66-26.44-22.5v-2Z"/>
  <path class="cls-118" d="M222.47,67.07c10.97,2.53,19.18,12.35,24.94,21.5.7,1.16,1.39,2.33,2.06,3.5l-2,2c-.41-.62-.83-1.23-1.25-1.87-6.25-9.16-12.19-17.77-22.75-22.13h-2c.33-.99.66-1.98,1-3Z"/>
  <path class="cls-57" d="M204.47,178.07h1c.17,4.23.34,8.46.5,12.69.05,1.18.1,2.36.14,3.57.3,7.92.41,15.82.36,23.74-3.08-5.33-3.13-10.87-3.13-16.89,0-1.28,0-2.57,0-3.89,0-.66,0-1.32,0-2,0-2.04,0-4.07,0-6.11,0-1.28,0-2.56,0-3.87,0-1.17,0-2.34,0-3.55q.13-2.68,1.13-3.68Z"/>
  <path class="cls-28" d="M71.47,300.07h2c.18.61.36,1.23.55,1.86.25.81.5,1.62.76,2.45.24.8.49,1.6.74,2.43.99,2.36,2.03,3.6,3.95,5.26,2.65-2.58,4.94-4.92,7-8l3,1c-.95,1.32-1.91,2.63-2.88,3.94-.53.73-1.07,1.46-1.62,2.21q-1.51,1.85-3.51,2.85c1.36,2.99,2.95,5.29,5.12,7.75.54.61,1.08,1.23,1.63,1.86q.61.69,1.24,1.39c-7.41-3.16-13.62-10.07-16.62-17.44-.97-2.79-1.38-4.58-1.38-7.56Z"/>
  <path class="cls-95" d="M196.47,86.07c.99.33,1.98.66,3,1-.15.91-.31,1.82-.46,2.75-.77,5.37-.89,10.77-1.1,16.18-.04,1.07-.09,2.13-.13,3.23-.11,2.61-.21,5.22-.31,7.83h-3c-.3-10.53.59-20.59,2-31Z"/>
  <path class="cls-24" d="M290.47,266.07c-4.81,1.25-9.52,1.13-14.46,1.1-.9,0-1.81,0-2.74,0-2.87,0-5.75-.02-8.62-.03-1.95,0-3.9,0-5.86-.01-4.78-.01-9.55-.03-14.33-.05v-1q40.25-3.65,46,0Z"/>
  <path class="cls-83" d="M159.47,249.07c1.28,2.52,2.44,5.03,3.56,7.62,2.33,4.72,5.73,8.28,9.32,12.08,1.87,2.02,3.52,4.07,5.12,6.3-2.17-.51-4-1-6-2l-1,4c-.02-.99-.04-1.98-.06-3-.61-4.48-3.14-6.75-6.14-9.95-2.64-3.02-4.58-6.21-5.79-10.05q.25-3,1-5Z"/>
  <path class="cls-66" d="M120.47,445.07l2,1v3c1.65.66,3.3,1.32,5,2-.33.99-.66,1.98-1,3-.52-.25-1.04-.5-1.58-.76-6.02-2.5-9.52-2.03-15.62-.01-4.27,1.18-8.4,1.03-12.8.77v-1h9v-2q1.37-.52,2.77-1.06,1.78-.68,3.6-1.38c1.18-.45,2.37-.9,3.59-1.37q2.9-1.08,5.04-2.19Z"/>
  <path class="cls-121" d="M163.47,313.07c.99.33,1.98.66,3,1q-11.77,17.34-18,25l-2-2c.34-.44.67-.89,1.02-1.34,1.56-2.05,3.11-4.1,4.67-6.16.53-.7,1.06-1.39,1.61-2.11,3.51-4.65,6.71-9.4,9.71-14.39Z"/>
  <path class="cls-51" d="M141.47,205.07c3.03,5.23,1.77,9.94.35,15.6-.76,2.67-1.57,5.31-2.41,7.96-.28.91-.56,1.83-.85,2.77-.69,2.23-1.38,4.45-2.08,6.67-.66-.33-1.32-.66-2-1,.93-4.32,1.9-8.63,2.99-12.91.18-.69.35-1.39.53-2.1.35-1.38.71-2.76,1.07-4.14,1.09-4.28,1.86-8.47,2.41-12.85Z"/>
  <path class="cls-29" d="M103.47,302.07c4.1,5.21,5.42,12.47,5,19h-2c-.27-1.13-.53-2.26-.8-3.43-.36-1.48-.71-2.96-1.07-4.45-.17-.75-.35-1.49-.53-2.26q-.99-4.35-3.6-7.86-2.43-.46-5.12-.62c-.91-.07-1.82-.15-2.76-.23-.7-.05-1.4-.1-2.12-.15v-1c1.41-.22,2.83-.43,4.25-.62q1.18-.17,2.39-.35c2.73-.03,4.08.52,6.36,1.98Z"/>
  <path class="cls-108" d="M112.53,111.07c6.54,2.3,12.01,6.26,16,11.94q.46,1.02.94,2.06-1.75-.19-4-1-.77-1.08-1.56-2.19c-3.69-4.25-8.46-6.32-13.44-8.81-.77-.39-1.55-.78-2.34-1.18-.55-.27-1.09-.54-1.66-.82,2.57-1.29,3.35-.84,6.06,0Z"/>
  <path class="cls-59" d="M112.47,169.07c2.68,4.02,2.16,6.24,2,11h3v2h-3v12h-2v-25Z"/>
  <path class="cls-55" d="M236.47,370.07c.99.33,1.98.66,3,1-1.32,5.28-2.64,10.56-4,16h2c-.66,1.32-1.32,2.64-2,4-.66-.33-1.32-.66-2-1-.42-7.25.56-13.17,3-20Z"/>
  <path class="cls-15" d="M192.47,299.07h1c1.96,8.59-.04,15.24-4,23q-1.67,1.88-3,3l-1-2c.71-1.63,1.49-3.23,2.31-4.81,2.98-6.25,3.96-12.34,4.69-19.19Z"/>
  <path class="cls-6" d="M156.47,236.07c.33.99.66,1.98,1,3q-2,3-4.06,3.52-1.24.1-2.51.21c-.9.08-1.79.16-2.71.24-.94.07-1.87.14-2.84.21q-1.42.12-2.86.25c-2.34.2-4.67.39-7.01.56-.33-.66-.66-1.32-1-2,7.05-2.21,13.65-2.2,21-2l1-4Z"/>
  <path class="cls-89" d="M228.47,259.07c2.89.61,5.08,1.53,7.62,3.02,4.75,2.43,9.11,2.65,14.38,2.73q1.31.04,2.64.09c2.12.07,4.24.12,6.36.16v1q-19.57,2.03-27.29-2.58-1.71-1.42-3.71-4.42Z"/>
  <path class="cls-105" d="M50.47,356.07c.99.33,1.98.66,3,1q-.42.82-.84,1.66c-3.55,7.78-3.93,14.9-4.16,23.34h-1c-1.09-9.56-1.88-17.28,3-26Z"/>
  <path class="cls-97" d="M24.47,302.07h1c.15.62.29,1.23.45,1.87,1.57,5.92,3.73,10.38,7.35,15.32q1.21,1.81,1.21,3.81c-4-1.33-4.54-3.08-6.62-6.69-.61-1.04-1.22-2.07-1.85-3.14-1.52-3.17-2.23-5.68-2.52-9.18l1-2Z"/>
  <path class="cls-38" d="M352.47,162.07c2.65,2.79,3.99,4.7,4.02,8.62-.25,2.49-.58,4.92-1.02,7.38h-1c-.1-.83-.2-1.66-.3-2.52-.15-1.09-.3-2.17-.45-3.29q-.21-1.62-.42-3.27-.59-2.97-2.61-4.76c-2.44-1.27-4.23-1.64-6.97-1.84-.8-.07-1.6-.13-2.42-.2-.6-.04-1.21-.07-1.83-.11v-1q9.04-1.53,13,1Z"/>
  <path class="cls-115" d="M112.47,194.07h2c-.12,6.54-1.75,9.6-6.11,14.43-2,1.66-3.35,2.17-5.89,2.57.4-.44.8-.87,1.21-1.32,4.21-4.73,7.57-9.32,8.79-15.68Z"/>
  <path class="cls-64" d="M83.47,189.07c-.64.1-1.28.21-1.94.31-.68.23-1.36.45-2.06.69-.33.99-.66,1.98-1,3l-2-1q-2.34.66-4.88,1.75c-.86.35-1.73.69-2.62,1.05-2.44,1.17-4.41,2.5-6.51,4.2l-2-1c6.49-6.15,13.94-9.79,23-9Z"/>
  <path class="cls-125" d="M248.47,93.07c.99.66,1.98,1.32,3,2v2q-8.91.99-18,2c-.33-.66-.66-1.32-1-2,5.38-1.19,10.45-2.29,16-2v-2Z"/>
  <path class="cls-28" d="M105.47,153.07c3.17,1.05,3.94,1.88,5.52,4.9.43,1.15.85,2.29,1.29,3.48q.66,1.71,1.33,3.46c.82,3.03,1,4.32-.14,7.16v-3h-2c-.81-2.1-1.63-4.21-2.44-6.31-.45-1.17-.9-2.34-1.37-3.55-.77-2.03-1.5-4.08-2.19-6.14Z"/>
  <path class="cls-27" d="M92.72,466.7c4.97,1,8.55,2.58,12.75,5.38-3.79,1.26-5.11.48-8.81-.88-4.07-1.48-7.89-2.52-12.19-3.12,3.54-2.36,4.22-2.13,8.25-1.38Z"/>
  <path class="cls-75" d="M178.47,219.07c8.41-.84,13.76,1.88,21,6v3c-.76-.41-1.52-.82-2.31-1.24-6.24-3.25-11.75-5.6-18.69-6.76v-1Z"/>
  <path class="cls-52" d="M101.47,211.07c.99.33,1.98.66,3,1-4.72,3.76-7.78,5.77-14,6q-3.44-.44-6-1v-1q.96-.04,1.94-.08c4.52-.3,8.1-.62,12-3.05,1.01-.62,2.02-1.24,3.06-1.88Z"/>
  <path class="cls-112" d="M86.47,363.07c.99.33,1.98.66,3,1q-5.19,10.56-8,15c-1.39-4.18.05-5.79,1.94-9.69.57-1.18,1.13-2.36,1.71-3.57.44-.9.89-1.81,1.35-2.74Z"/>
  <path class="cls-28" d="M37.47,191.07h2c.03,2.04.05,4.08.06,6.12.01,1.14.02,2.27.04,3.45-.09,3.24-.48,6.25-1.1,9.43-2.56-3.79-2.03-7.41-1.62-11.75.06-.7.11-1.39.17-2.11.14-1.71.3-3.43.45-5.14Z"/>
  <path class="cls-2" d="M198.47,376.07c-1.51,3.43-3.52,5.96-6,8.75q-1.05,1.2-2.12,2.42-1.88,1.83-3.88,1.83c1.34-3.98,3-6.39,6-9.31.7-.7,1.4-1.39,2.12-2.11q1.88-1.57,3.88-1.57Z"/>
  <path class="cls-18" d="M224.47,346.07c-5.24,2.34-10.53,4.25-16,6v-3c1.91-.7,3.83-1.38,5.75-2.06,1.07-.38,2.13-.77,3.23-1.16,2.94-.76,4.24-.85,7.02.22Z"/>
  <path class="cls-81" d="M44.47,289.07h2c.33,5.61.66,11.22,1,17h-2c-1.19-3.56-1.1-6.44-1.06-10.19,0-1.27.02-2.54.03-3.86.01-.98.02-1.95.04-2.96Z"/>
  <path class="cls-122" d="M310.47,228.07c1.11,3.32.94,3.93-.25,7.06q-.38,1.04-.77,2.1-.98,1.84-3.98,3.84c-.64-5.26.79-7.69,3.91-11.68q.54-.65,1.09-1.32Z"/>
  <path class="cls-64" d="M116.47,449.07c-1.3,2.6-2.24,2.68-4.94,3.62-5.07,1.62-9.79,1.67-15.06,1.38v-1h9v-2c1.46-.53,2.91-1.05,4.38-1.56q1.22-.44,2.46-.88,2.16-.56,4.16.44Z"/>
  <path class="cls-32" d="M180.47,332.07h2c-.75,3.93-2.51,6.22-4.94,9.32q-1.32,1.78-1.06,4.68h-2q-.71-1.67-1-4,1.36-2.58,3.31-5.25.95-1.34,1.93-2.7c.58-.68,1.16-1.35,1.76-2.05Z"/>
  <path class="cls-106" d="M30.47,180.07c1.16,2.87.99,4.02,0,7.02q-.71,1.6-1.44,3.23c-.47,1.08-.95,2.16-1.43,3.27-.37.82-.75,1.64-1.13,2.48-.66-.33-1.32-.66-2-1,.6-3.85,1.77-6.86,3.56-10.31.46-.88.91-1.77,1.38-2.68q.52-1,1.06-2.01Z"/>
  <path class="cls-42" d="M140.47,376.07q-1,2-4.19,3.12c-3.48.8-6.26,1.21-9.81.88-.66-.66-1.32-1.32-2-2,2.29-.53,4.58-1.05,6.88-1.56,1.28-.29,2.55-.58,3.87-.88q3.26-.56,5.26.44Z"/>
  <path class="cls-33" d="M234.47,390.07c-1.19,3.57-2.45,4.46-5.38,6.75-.79.63-1.58,1.27-2.4,1.92-.73.44-1.47.88-2.23,1.33l-3-1c1.79-1.51,3.58-3,5.38-4.5,1-.84,2-1.67,3.02-2.53q2.6-1.97,4.6-1.97Z"/>
  <path class="cls-102" d="M167.47,267.07c3.6.56,5,1.75,7.25,4.56q.78.96,1.58,1.94c.39.49.77.99,1.17,1.5-2.17-.51-4-1-6-2-.33,1.32-.66,2.64-1,4-.12-1.09-.25-2.19-.38-3.31q-.38-3.76-2.62-6.69Z"/>
  <path class="cls-47" d="M336.47,208.07c2.19,3.28,2.21,3.71,1.69,7.38q-.16,1.19-.33,2.39c-.39,2.43-.82,4.83-1.36,7.23-.66-.66-1.32-1.32-2-2,.18-2.6.46-5.06.88-7.62.1-.71.21-1.41.32-2.14.26-1.75.53-3.49.81-5.23Z"/>
  <path class="cls-25" d="M110.47,340.07c2.75,2.37,4.04,4.49,5,8q-.38,3.81-1,7h-1c-1.14-4.98-2.22-9.94-3-15Z"/>
  <path class="cls-80" d="M158.47,225.07h1c.05,1.73.09,3.46.12,5.19.02.96.05,1.93.07,2.92-.2,3.02-.93,5.16-2.2,7.89-2.24-3.51-2.02-5.67-1.19-9.69q.29-1.46.58-2.95.61-2.36,1.61-3.36Z"/>
  <path class="cls-34" d="M16.47,330.07c3.42,1.14,4.13,2.06,6.25,4.88.54.7,1.08,1.4,1.64,2.12.37.66.73,1.33,1.11,2.01l-1,3q-6.52-7.11-8-12Z"/>
  <path class="cls-28" d="M240.47,361.07c-3.65,3.04-7.74,4.97-12,7v-3c1.43-.87,2.87-1.72,4.31-2.56q1.2-.71,2.43-1.44,2.26-1,5.26,0Z"/>
  <path class="cls-104" d="M116.47,333.07c3.79,1.45,7.39,3.15,11,5-.33.99-.66,1.98-1,3-1.67-.95-3.34-1.91-5-2.88-.93-.53-1.86-1.07-2.81-1.62-.72-.5-1.44-1-2.19-1.51v-2Z"/>
  <path class="cls-60" d="M159.47,238.07v13c-.66-.33-1.32-.66-2-1v-7c-.99-.33-1.98-.66-3-1q3.88-4,5-4Z"/>
  <path class="cls-110" d="M138.47,224.07h1c-.51,4.97-1.23,9.29-3,14-.66-.33-1.32-.66-2-1,.28-1.42.58-2.83.88-4.25.16-.79.32-1.58.49-2.39.62-2.33,1.48-4.25,2.63-6.36Z"/>
  <path class="cls-63" d="M197.47,287.07c3.3.99,6.6,1.98,10,3-.33,2.31-.66,4.62-1,7h-1v-5c-1.13-.27-2.27-.54-3.44-.81-1.18-.39-2.35-.78-3.56-1.19-.33-.99-.66-1.98-1-3Z"/>
  <path class="cls-77" d="M123.47,172.07c.99.33,1.98.66,3,1-2.53,4.22-4.57,6.78-9,9q0-3,2.44-5.56c.85-.8,1.69-1.61,2.56-2.44l1-2Z"/>
  <path class="cls-96" d="M106.47,109.07l2,2c-3.3.66-6.6,1.32-10,2-.33-.99-.66-1.98-1-3,3.24-1.08,5.6-1.22,9-1Z"/>
  <path class="cls-39" d="M236.47,370.07c.99.33,1.98.66,3,1l-3,12c-2.59-3.88-1.88-5.53-1-10,.33-.99.66-1.98,1-3Z"/>
  <path class="cls-78" d="M115.47,470.07c1.51.92,3.01,1.87,4.5,2.81q1.25.78,2.53,1.58c.65.53,1.3,1.06,1.97,1.61v3c-1.51-.92-3.01-1.87-4.5-2.81-.84-.52-1.67-1.04-2.53-1.58q-.97-.79-1.97-1.61v-3Z"/>
  <path class="cls-44" d="M320.47,205.07h2q-2.35,7.37-4,10c-.99.33-1.98.66-3,1,1.22-4.03,2.56-7.54,5-11Z"/>
  <path class="cls-20" d="M134.47,137.07c2.15,3.44,2.1,5.77,1.62,9.75-.11.98-.22,1.97-.34,2.98-.1.75-.19,1.5-.29,2.27h-1c-.19-2.31-.38-4.62-.56-6.94q-.16-1.93-.32-3.9c-.04-1.04-.08-2.09-.12-3.16l1-1Z"/>
  <path class="cls-84" d="M334.47,185.07q2.47.5,5,1c-.33,3.96-.66,7.92-1,12h-1v-10h-2c-.33-.99-.66-1.98-1-3Z"/>
  <path class="cls-61" d="M103.47,302.07l2,3q-3.88-.88-5-2c-1.68-.23-3.37-.41-5.06-.56q-1.38-.13-2.79-.25-1.07-.09-2.15-.18v-1c1.41-.22,2.83-.43,4.25-.62q1.18-.17,2.39-.35c2.75-.03,4.08.46,6.36,1.98Z"/>
  <path class="cls-49" d="M289.47,225.07h2c.66,2.97,1.32,5.94,2,9h-3c-.33-2.97-.66-5.94-1-9Z"/>
  <path class="cls-54" d="M24.47,166.07h2q-.62,7.51-2.56,10c-.47.33-.95.66-1.44,1q-1-2-.44-4.16c.29-.81.58-1.62.88-2.46.29-.82.57-1.63.87-2.48.23-.63.46-1.25.69-1.9Z"/>
  <path class="cls-93" d="M214.47,155.07c0,4.25-1.82,6.39-4,10h-2c1.21-4.43,2.52-6.98,6-10Z"/>
  <path class="cls-2" d="M99.47,144.07q6.57,5.14,8,9c-3.14-.34-4.03-1.03-6.25-3.38q-1.75-2.62-1.75-5.62Z"/>
  <path class="cls-88" d="M239.47,142.07l-1,2q-2.07.41-4.56.62c-.83.07-1.65.15-2.5.23q-.96.07-1.93.15,2-3,3.88-3.75c2.32-.27,3.91.04,6.12.75Z"/>
  <path class="cls-45" d="M108.47,110.07l9,3c-.33.99-.66,1.98-1,3l-10-4,2-2Z"/>
  <path class="cls-13" d="M192.47,431.07c.99.33,1.98.66,3,1q-1.98,4.45-4,9c-.66-1.32-1.32-2.64-2-4q1.38-3.25,3-6Z"/>
  <path class="cls-106" d="M84.47,432.07c3.4,1.06,6.01,2.01,9,4v2c-3.91-1.16-6.87-2.36-10-5l1-1Z"/>
  <path class="cls-72" d="M163.47,313.07c.99.33,1.98.66,3,1-1.65,2.64-3.3,5.28-5,8-.66-.33-1.32-.66-2-1,1.12-2.97,2.22-5.33,4-8Z"/>
  <path class="cls-12" d="M80.47,215.07c1.7.25,3.38.58,5.06.94.92.19,1.84.39,2.79.59q1.07.23,2.15.47v2q-6.4.37-9.44-1.5c-.52-.49-1.03-.99-1.56-1.5l1-1Z"/>
  <path class="cls-35" d="M219.47,149.07l2,2q-2.97,2.47-6,5v-4q2-1.75,4-3Z"/>
  <path class="cls-38" d="M196.47,86.07c.99.33,1.98.66,3,1-.28,1.48-.58,2.96-.88,4.44-.16.82-.32,1.65-.49,2.5-.21.68-.42,1.36-.63,2.07q-.99.49-2,1c.33-3.63.66-7.26,1-11Z"/>
  <path class="cls-113" d="M140.47,394.07c2.3,3.45,2.34,4.95,2,9-.66.66-1.32,1.32-2,2-1.05-3.98-.84-6.98,0-11Z"/>
  <path class="cls-87" d="M203.47,306.07c.99.33,1.98.66,3,1-.66,1.98-1.32,3.96-2,6,.66.33,1.32.66,2,1h-5l2-8Z"/>
  <path class="cls-31" d="M214.47,244.07h2q1.29,1.75,2.62,4c.45.74.89,1.49,1.35,2.25.34.58.68,1.16,1.02,1.75h-3q-4-4.23-4-8Z"/>
  <path class="cls-4" d="M65.47,225.07c-3.17,1.91-5.11,2.16-8.75,1.62-.8-.11-1.6-.22-2.42-.34-.6-.1-1.21-.19-1.83-.29v-1q8.43-1.29,13,0Z"/>
  <path class="cls-50" d="M286.47,188.07l2,1q.41,2.07.62,4.56c.07.83.15,1.65.23,2.5q.07.96.15,1.93-.99.49-2,1c-.33-3.63-.66-7.26-1-11Z"/>
  <path class="cls-62" d="M251.47,142.07c2.94.31,5.35.67,8,2-.33.99-.66,1.98-1,3-2.97-.99-5.94-1.98-9-3l2-2Z"/>
  <path class="cls-103" d="M215.47,85.07h2c-.33,3.63-.66,7.26-1,11-2.79-4.18-1.8-6.15-1-11Z"/>
  <path class="cls-14" d="M184.47,373.07c1.53,4.08.63,7.79,0,12h-1c-.22-1.62-.43-3.25-.62-4.88-.12-.9-.23-1.81-.35-2.74,0-.79-.02-1.57-.02-2.38l2-2Z"/>
  <path class="cls-58" d="M206.47,213.07h1c.22,1.79.43,3.58.62,5.38.12,1,.23,2,.35,3.02,0,.86.02,1.72.02,2.6-.66.66-1.32,1.32-2,2q-1.29-8.43,0-13Z"/>
  <path class="cls-26" d="M333.47,186.07h2c-1.44,3.37-3.33,5.51-6,8-.33-.66-.66-1.32-1-2,1.62-2.04,3.29-4.04,5-6Z"/>
  <path class="cls-7" d="M281.47,264.07c2.97.33,5.94.66,9,1-3.85,2.57-5.59,1.83-10,1l1-2Z"/>
  <path class="cls-8" d="M183.47,220.07v1c-3.3.66-6.6,1.32-10,2v-3c3.28-1.64,6.43-.52,10,0Z"/>
  <path class="cls-41" d="M248.47,93.07c.99.66,1.98,1.32,3,2v2c-2.97-.33-5.94-.66-9-1v-1h6v-2Z"/>
  <path class="cls-56" d="M218.47,77.07h1c-.33,2.97-.66,5.94-1,9-.66-.33-1.32-.66-2-1q.88-6.88,2-8Z"/>
</svg>